/* XPM */
static char *ef0becc950d14847a92a5a9c5cd0a5af0GttGkGDQhQdI0YP[] = {
/* columns rows colors chars-per-pixel */
"64 64 6 1 ",
"  c #006B00",
". c #72683E",
"X c #DFB500",
"o c #F8D634",
"O c #FFF83A",
"+ c #FFFB85",
/* pixels */
"                                                                ",
"                                                                ",
"                                                                ",
"                                                                ",
"                                                                ",
"                                                                ",
"                                                                ",
"                                                                ",
"                                                                ",
"                                                                ",
"                                                                ",
"                                                                ",
"                                                                ",
"                                                                ",
"                                                                ",
"                                                                ",
"                                                                ",
"                                                                ",
"                                                                ",
"                                                                ",
"                                                                ",
"                         ......                                 ",
"                      ...OOoooo...                              ",
"                     .OOOoooooooXX.                             ",
"                    .Oooooooooooooo.                            ",
"                   .OooooOOOOXoXOXoX.                           ",
"                   .OoOOOOOOOOOOOXoX.                           ",
"                   .OoOOOOOOOOOOOXoX.                           ",
"                   ..OOOOOOOXoOO......                          ",
"                   .O.OOOoooo...ooooOO...                       ",
"                   .Oo...OOo.XXoooooooOOO.                      ",
"                    .oOoO...oooooooooooooO.                     ",
"                     .OoOo.XoXOXoXOOOOooooO.                    ",
"                      ...o.XoXOOOOOOOOOOOoO.                    ",
"                         ..XoXOOOOOOOOOOOoO.                    ",
"                          ..XXOOOoX+OOOOOO..                    ",
"                          .X.XXXooooooOOO.O.                    ",
"                          .Xo...ooooOO...oO.                    ",
"                           .oXoX......OoOo.                     ",
"                            .XoXoOoOOoOoO.                      ",
"                             ...oOoOOo...                       ",
"                                ......                          ",
"                                                                ",
"                                                                ",
"                                                                ",
"                                                                ",
"                                                                ",
"                                                                ",
"                                                                ",
"                                                                ",
"                                                                ",
"                                                                ",
"                                                                ",
"                                                                ",
"                                                                ",
"                                                                ",
"                                                                ",
"                                                                ",
"                                                                ",
"                                                                ",
"                                                                ",
"                                                                ",
"                                                                ",
"                                                                "
};
