/* XPM */
static char *_5338_cb8ec2a8d2e8ff681e8f392896fc47cf60a32b58d3579c75837d8062254c7fe7[] = {
/* columns rows colors chars-per-pixel */
"64 64 58 1 ",
"  c #080A0F",
". c #0E1016",
"X c #1B1F2A",
"o c #1E222D",
"O c #1D2230",
"+ c #1F253A",
"@ c #20273C",
"# c #22283E",
"$ c #2B313F",
"% c #252C42",
"& c #282F46",
"* c #293047",
"= c #2B334B",
"- c #2F3750",
"; c #2F3851",
": c #323B54",
"> c #353F59",
", c #37405A",
"< c #39435E",
"1 c #3C4661",
"2 c #3F4A66",
"3 c #404B66",
"4 c #424D6A",
"5 c #45516E",
"6 c #4B556F",
"7 c #475370",
"8 c #4A5673",
"9 c #4C5876",
"0 c #4E5A79",
"q c #515C77",
"w c #515E7D",
"e c #53607E",
"r c #5A657F",
"t c #556382",
"y c #596686",
"u c #5A6788",
"i c #5C6A8B",
"p c #606B83",
"a c #606E8F",
"s c #66718C",
"d c #68738C",
"f c #606E90",
"g c #637294",
"h c #687593",
"j c #6E7992",
"k c #677699",
"l c #687799",
"z c #6C7A9C",
"x c #717F9F",
"c c #73809F",
"v c #7583A1",
"b c #7986A4",
"n c #7D89A5",
"m c #828EA7",
"M c #828EA9",
"N c #8591AB",
"B c #8A96AD",
"V c #8E99B0",
/* pixels */
"kkkkkkkkf4ulxVVvuqBVd9ggly33ikxVVVVNk8jVm6yhhkkgt43ikvVVVVNkkVNk",
"NNNvNNvkg4ivmxcnp-qqsmMzlft3fvMxxxxbM<3ercmNNNNNcy2ibnvcccvNccvN",
"NNNvNNxkf4ivmxvnp-qwscNzlft3fvnxxxxvm<3etcNNNNNNcy2ivncvccvNccvN",
"bbkkzkky2;7gvkkvw#=-qmnjly1;9lvklllzm-*=,vbbnnnns2;8gvkkkkkkzkzb",
"giiiiki9%#1ykkiu9;@-0kkiu7%+2ukkkauiy1*$1gkkkkii5&+2ukkkfifiuiui",
"i3922g721#wkgg520t%tkkf523<+tkggg8223u<,kkkkgg722<+ekkkg92022222",
"424224321+wt453222+tki52221+tt55533234;<kkkt54222<+tkkg922222222",
"222222221#2tt22221+29tt522<+4t02333333-;09977y422<#4ia9222222222",
"22222221-+=4w222<-+=>7t23<=+=50222222>&%:2227t421;@=202222222222",
":224522>%++=17771%++-<<<>=@@#=<<57777=#+%,<,<,,1=+++;,122222221*",
" +++++++++++:kkkt<++++++#@@@++@&ikkkk5=+++++++++++++@@%+++@%@+++",
"Xtku7k03+++,uk070t%:5ttttt7@++;ykki78u<&1tttttytt9@++;tgt7t2070k",
"3lww0ttu3#19wwt779:8fkkkklf7&>8w0we02021ygkkkkkkkg7*:8tt7272222t",
"fu29t4tii%7023t9249fkguuuuil;3w2229t225tkkiiyiyiuik;1t1222222222",
"%>232231y%>2221224kggy23335f=:22222221tkgg82222227g;;22222222222",
"#>22233>1#>22222:-g044223334&-2222222=8y45322222222*:22222222222",
"+&=**=*%&#&****=%#>13322221=#%==*&**=+=<2222222221=#%;2222222222",
"=w*222w93322,+@&>230w92:;10322332=+#=225ww5<;;9wt02221;;1700,70e",
"$k322twiiiigy=#,ekkiiy5%=5kkfiiik3&*8gkgii0:%;ikkiiigt-#1tkkfykk",
"kkk22982222wkg=9kkk829f*9kkk7235gk5-kkky22y5,kkky222tki=9kkk7kkk",
"f772222222tt75%9i774244&9u77429i87,-k975227,;k97222tt72*9y772i57",
"922;%2%2229721%:12222<=#2722224032:%122222:%=w522229721%:2222222",
"=3,=+:#222221:#+&>::>=++=12222332,=++;,:,:%+%;22222221;#+&,:*&::",
"o224522>%<241=*&%+++%&&&&-1124455:*&&++++&**&=27221222***&kkz*&=",
"i+++++++++,tggfg7+++3gfgf5+%,tggggfff=++&iffgfgg8++<wggggffiifff",
"g9e99g05;#7fkk0907#4ikk094;+0fkkke9990::tkkkkkw92>+8gkkkt9922999",
"02522t421+witw4278#tkft422,+tittt52220,,kkkitt2221+tkkkt52222222",
"222222221+9t72222<+9it72221+9t42222222=,iii9282221+9fgi222222222",
"22222222<+:wi2222<+>19f722>+>tu2222222==22228g522,+,tu2222222222",
"2222222>%+#>5222>#+%:3722:%+%>4222222=#+&2222722,%+%,222222522,%",
" +ggkkk+++++:kkkt<@@+++#+++++++&ikkkk5=+++++++++++++++%+++++++++",
"Xeki7k04+++<ig07wt#;7ttttt9+++;ykku78u<&1tttytttt9+++;tkt8t8080g",
"4k0t0wti2#19t0t779:9ilklklf7&>9we0e02022ygkkkkkkkf7=:8ww5272425w",
"gu29t3tii%7922t8239flguyuuil;1w2229t225tkkiiyiyiuik;1e2222222222",
"i2221329u%>2222214kggy22327f-;22222221tkgg92222225f:;22222222222",
"4233733:%#>22222>-g044222234&:2222222&8u55222222225&;22222222222",
"2@++#++++#%==&=&%%>12223221=%%&*&=&=&#=<2222222221=#%;2222222222",
"=w*+#@+91331>++&>239w92::10231222*+#-<35we5,;:9e00333<;:<5ww,5ww",
"$l4&*;%iiiigt-#,tkkfiy5%=5kkffifk3&*9ilkii0:%;ikgiiigt=#<tkkfekl",
"kkk5;f=3322tkg=8kkk729f&9kkk7225gk5-kkky22i5:kkky224tkg*0kkk8kkk",
"a52tk5%222tt55&9u773334%0u77327i87,-k955225::g07522tt54%9i774i55",
"93tw52%2229721%;122221=%1722225032:%222222:&-0422229522%:1kkl223",
"=2862:#222221:%+&:>::-++=12122222,=++;,:::%+%:22222221;%+&iii*:>",
"o5321&=211242&&&%@++%**&*;1124755:&&&#++#&***=25211221****022***",
"iggfggf9+%>wgfgf7+++2ffgf7%#>tggggfff=++&igfffgg8+#<egfgfg222fgf",
"f9t99g04:#7fkk0907#3ikk094-+0fkkkt9990:;tkkkkk092>+8gkkkt9222989",
"02722t42,#witt4279%tkft222<+titte52220,<kkkitt422<+tkkkt52222222",
"222222221#8t72221<+9it9231<+9t52222222=,iii0472221+9fgu522777222",
"22222222,+>wi22221+:28f522>+>ty2222222==22228g722<+,wi2222kkk222",
"2222222,%+#>5222:%+%:2522>%+%>4322222=@+&1222722,++%>422224522:%",
"O=yytyy%+++%,tty7-++%-=*=%+++%=;tttyt1&++=======%+++%=;+++++++++",
".1kfyku:+++=5kyyt5%*:11111>+++*3gkfyy0:%=1<111111,+++&2fiy2922ik",
"#kaw2i9w*+&5gi940t&1tkkkkku=%%1ffft22u2;9gkkkkkkki-#%1ff9224227f",
"gk4325iku%0e25i9222ukkkkkkkf-4u322222429gkkkkkkkkkg:4y4222222222",
"a822228ti%15228525ugkf99890k;>522222220fkkt9889980k;>72222222222",
"022222259#,22222>1gtt922224t=:2222222:0itt42222222t=;22222277722",
"222722>%:#:>>,,:=&043222222>%=>>>>>>>%192222222222>&=,22222kkk22",
"++#+++++#%#%#+++%%%14321121%%%%&%+++#%%=2222222221&%%=12222722>%",
"Ofiii++fiiii9++:7iifgt1&%1fiiiiii>+&1tiigg9;%%yfgfiii9%+++++++++",
"890999%9000ii9%4ikkt0wt&1ykkt900gt,=ugkf99t1=9gki990uf7%5fk222kk",
"g2228t&2229tye&9gtt725w&9ftt4250tt1:kut02201;kyt0229ttw&9fy222yt",
"y222t2%222t022%3022222>#7w22228i42:=y422221-;i72222y021%40222222",
"y222t1%222t021%3032221,%8w22229i42;=y522221=;i52222t021#40222222",
"222222%2222222%+=2233>++:222222222-+#<3222*+*2222222222%#=222=22"
};
