/* XPM */
static char *_82dc13901c24dc689eca68249ec4898Ztd8d9nI9HQ5459D[] = {
/* columns rows colors chars-per-pixel */
"40 56 12 1 ",
"  c None",
". c black",
"X c #21110D",
"o c #171C31",
"O c #402717",
"+ c #573A23",
"@ c #AC7B5D",
"# c #1D438A",
"$ c #2C65B5",
"% c #787E97",
"& c #A4A8B5",
"* c #C1AC8F",
/* pixels */
"                                        ",
"                                        ",
"                                        ",
"                                        ",
"                                        ",
"                                        ",
"                                        ",
"                                        ",
"                                        ",
"                                        ",
"                                        ",
"                                        ",
"                                        ",
"                                        ",
"                                        ",
"                                        ",
"                                        ",
"                                        ",
"                                        ",
"                                        ",
"                                        ",
"              .... ..                   ",
"              .++O.+...                 ",
"              ..++O+O++.                ",
"             .O+++++++++.               ",
"            .O+++++++++++.              ",
"            .O++O+++OO+++.              ",
"            .OOOO+++O@@O+O.             ",
"            .O+OO++O@@@@OO.             ",
"            .O++@O+@X**X.O.             ",
"            .OO+@@O*X**X..              ",
"             .OO@@******.               ",
"              .OO@@****@.               ",
"               .OO@@@@@.                ",
"               .OO+%%%O.                ",
"               .O++%%&O.                ",
"              .**++%&&O@.               ",
"              .**++$$$O@.               ",
"              o.#$$#$$..o               ",
"             oo.O+..O+.ooo              ",
"             ooooooooooooo              ",
"              ooooooooooo               ",
"                                        ",
"                                        ",
"                                        ",
"                                        ",
"                                        ",
"                                        ",
"                                        ",
"                                        ",
"                                        ",
"                                        ",
"                                        ",
"                                        ",
"                                        ",
"                                        "
};
