/* XPM */
static char *ffa2c95631724ce2bc55265b77faaac5cCkq57KXZbSBMFQT[] = {
/* columns rows colors chars-per-pixel */
"64 64 8 1 ",
"  c #173A38",
". c #006B00",
"X c #1E4B4D",
"o c #245B57",
"O c #2B5F68",
"+ c #34707A",
"@ c #408387",
"# c #469488",
/* pixels */
"................................................................",
"................................................................",
"................................................................",
"................................................................",
"................................................................",
"................................................................",
"................................................................",
"................................................................",
"................................................................",
"................................................................",
"................................................................",
"................................................................",
"................................................................",
"................................................................",
"................................................................",
"................................................................",
"...........................#..####..............................",
".............................##@@###....#.......................",
".......................##...##@@@@@###..##......................",
"......................#@...##@@+++@@@##..@#.....................",
"......................#...##@@+O+++@@@##..@#....................",
".....................#@..##@@+OOO++++@@##..#..#.................",
".....................@..##@@++OOOOO+++@@##.@....................",
".....................@.##@@++OOOoOOOO++@@#..#...................",
".......................#@@++OOOooooOOO+@@##.....................",
"...................#...#@@++OOooooooOO++@##.....................",
"...................#...#@@+OOoooXXooOO++@@#.....................",
".......................@@++OOooX XXoOO++@@#..#..................",
"....................#.#@@++OooXX  XoOOO++@#..#..................",
"...................#@.#@@+OOooX   XooOO++@##.#..................",
"...................#..@@++OOoXX  XXXoOO++@@#....................",
"...................@.#@@++OOoXX   XXoOO++@@#....................",
"..................#..#@@++OOooX   XXoOO++@@#....................",
"......................@@++OOooX   XooO+++@@#....................",
"......................#@+++OooXXX XooO+++@@#....................",
"...................#..#@+++OOooXXXXooO+++@##..#.................",
"...................@#.#@@++OOoooXXooOO++@@##....................",
"......................#@@@+OOoooooooO++@@@#.....................",
".......................#@@++OOoooooOO+@@@##..#..................",
".......................##@@++OOOoOOOO+@@##..#...................",
"....................#...#@@++OOOOOO+++@##...#...................",
".....................#..##@++++OO+++@@@#...#@...................",
".....................#..##@@++++++++@@@#...@....................",
".....................#...#@@@@++++@@@###..#@....................",
".....................@....#@@@++++@@@#....#.....................",
".....................@#...#@@@@+@@@@##..........................",
"......................@#...##@@@@##.............................",
".............................####....#..........................",
"................................................................",
"................................................................",
"................................................................",
"................................................................",
"................................................................",
"................................................................",
"................................................................",
"................................................................",
"................................................................",
"................................................................",
"................................................................",
"................................................................",
"................................................................",
"................................................................",
"................................................................",
"................................................................"
};
