/* XPM */
static char *dedc61b89ba94937f08a4b8ccb512671B7plJtZZ7GwM0F6q[] = {
/* columns rows colors chars-per-pixel */
"64 64 183 2 ",
"   c None",
".  c black",
"X  c #000001",
"o  c #010101",
"O  c #010102",
"+  c #010203",
"@  c #020202",
"#  c #020203",
"$  c #020204",
"%  c #020305",
"&  c #040404",
"*  c #060606",
"=  c #040509",
"-  c #050609",
";  c #05060A",
":  c #05060B",
">  c #06070B",
",  c #06070C",
"<  c #07080D",
"1  c #07080E",
"2  c #07090F",
"3  c gray4",
"4  c #0B0B0B",
"5  c #08090F",
"6  c #0C0C0C",
"7  c gray6",
"8  c #080A10",
"9  c #090A11",
"0  c #090B12",
"q  c #0B0D15",
"w  c #0C0E17",
"e  c #0C0F18",
"r  c #0C0F19",
"t  c #0D101A",
"y  c #0D101B",
"u  c #0E111B",
"i  c #0F121D",
"p  c #0F121E",
"a  c #111111",
"s  c gray7",
"d  c gray8",
"f  c #151515",
"g  c #161616",
"h  c #10131F",
"j  c #181818",
"k  c gray11",
"l  c #101320",
"z  c #101420",
"x  c #111522",
"c  c #121523",
"v  c #121624",
"b  c #121625",
"n  c #131726",
"m  c #131727",
"M  c #141726",
"N  c #141727",
"B  c #141828",
"V  c #151928",
"C  c #151929",
"Z  c #15192A",
"A  c #151A2A",
"S  c #161A2A",
"D  c #161A2B",
"F  c #161B2C",
"G  c #171B2D",
"H  c #171C2E",
"J  c #181D2F",
"K  c #181D30",
"L  c #191E31",
"P  c #1A1F33",
"I  c #1A1F34",
"U  c #1B2034",
"Y  c #1C2136",
"T  c #1C2137",
"R  c #1C2237",
"E  c #1D2238",
"W  c #1D2339",
"Q  c #1E243B",
"!  c #1F253C",
"~  c #1F253D",
"^  c #1F263E",
"/  c #202020",
"(  c gray13",
")  c gray14",
"_  c gray15",
"`  c #272727",
"'  c gray17",
"]  c #2C2C2C",
"[  c #2D2D2D",
"{  c gray18",
"}  c #20263E",
"|  c #20263F",
" . c #313131",
".. c #323232",
"X. c gray20",
"o. c #343434",
"O. c #353535",
"+. c gray21",
"@. c #393939",
"#. c #3C3C3C",
"$. c #3F3F3F",
"%. c #212740",
"&. c #212841",
"*. c #222842",
"=. c #222943",
"-. c #222944",
";. c #232944",
":. c #232A44",
">. c #232A45",
",. c #242B46",
"<. c #242B47",
"1. c #242C48",
"2. c #252C48",
"3. c #252C49",
"4. c #262D4A",
"5. c #272E4B",
"6. c #272E4C",
"7. c #272F4D",
"8. c #28304E",
"9. c #28304F",
"0. c #293150",
"q. c #293151",
"w. c #2A3151",
"e. c #2A3353",
"r. c #2B3353",
"t. c #2B3354",
"y. c #2C3455",
"u. c #2C3456",
"i. c #2C3557",
"p. c #2D3658",
"a. c #2E3659",
"s. c #2E375A",
"d. c #2E375B",
"f. c #2F375B",
"g. c #2F385B",
"h. c #2F385C",
"j. c gray25",
"k. c #414141",
"l. c gray26",
"z. c #4B4B4B",
"x. c #4C4C4C",
"c. c gray31",
"v. c #535353",
"b. c #585858",
"n. c #5B5B5B",
"m. c gray37",
"M. c #626262",
"N. c #656565",
"B. c gray40",
"V. c gray43",
"C. c #797979",
"Z. c gray50",
"A. c #898989",
"S. c #8E8E8E",
"D. c #929292",
"F. c gray59",
"G. c #9D9D9D",
"H. c #A2A2A2",
"J. c #A5A5A5",
"K. c gray66",
"L. c #AAAAAA",
"P. c #BCBCBC",
"I. c gray",
"U. c #C3C3C3",
"Y. c #C6C6C6",
"T. c #CECECE",
"R. c gray82",
"E. c LightGray",
"W. c gray83",
"Q. c #D5D5D5",
"!. c #DADADA",
"~. c gainsboro",
"^. c gray88",
"/. c gray90",
"(. c #E9E9E9",
"). c gray93",
"_. c #EEEEEE",
"`. c gray95",
"'. c gray97",
"]. c #F9F9F9",
"[. c #FBFBFB",
"{. c gray99",
"}. c white",
/* pixels */
"                                                                                                                                ",
"                                                                                                                                ",
"                                              x.b.                            b.x.                                              ",
"                                            [ E.V.. .                     . . V.E.[                                             ",
"                                        . C._.}.`.(.(..                 . (.(.`.}._.C..                                         ",
"                                        . Z.}.}.V.. .                     . . V.}.}.Z..                                         ",
"                                        x.L.}.^.m.. .                     . . b.~.}.L.x.                                        ",
"                                      . T.}./.m.                                m./.}.T..                                       ",
"                                      . T.}.T..                                 . T.}.T..                                       ",
"                                      . T.}.].F.                                F.}.}.T..                                       ",
"                                      . T.}.}.G.                                G.}.}.T..                                       ",
"                                        D.Q.}.I.$.                            @.I.}.E.D.                                        ",
"                                        . Z.}.}.P.A.A.A.A.A.A.A.A.A.A.A.A.A.A.I.}.}.Z..                                         ",
"                                          +.B.}.}.}.}.}.}.}.}.}.}.}.}.}.}.}.}.}.}.B.+.                                          ",
"                                             .}.}.}.}.}.}.}.}.}.}.}.}.}.}.}.}.}.}. .                                            ",
"                                            [ }.}.}.}.}.}.}.}.}.}.}.}.}.}.}.}.}.}. .                                            ",
"                                             .}.}.}.}.J.U.}.}.}.}.}.}.Y.J.}.}.}.}. .                                            ",
"                                             .}.}.E.S.. [ L._.}.}._.L.[ . S.E.}.}. .                                            ",
"                                             .}.}.H.s . & x.~.}.}.~.x.& . s H.}.}. .                                            ",
"                                             .}.}.G.3 . . j.!.}.}.!.j.. . & G.}.}. .                                            ",
"                                             .}.}.G.& . . j.!.}.}.!.j.. . 3 G.}.}. .                                            ",
"                                             .}.}.G.& . . j.!.}.}.!.j.. . & G.}.}. .                                            ",
"                                             .}.}.G.3 . . l.!.}.}.!.l.. . & G.}.}. .                                            ",
"                                             .}.}.(.Y.. j.Q.'.}.}.].Q.j.. Y.(.}.}. .                                            ",
"                                            . B.}.}.}.].].}.}.}.}.}.}.].].}.}.}.B..                                             ",
"                                      .       M.}.}.}.}.}.}.}.}.}.}.}.}.}.}.}.}.M.                                              ",
"                                      d 3     $.Q.}.}.}.}.}.}.}.}.}.}.}.}.}.}.Q.$.                                              ",
"                                    d +.' j . . $.H.].}.}.}.}.}.}.}.}.}.}.].H.$..                                               ",
"                                    6 [ j./ . d  . .+.v.}.}.}.}.}.}.}.}.v.+.`                                                   ",
"                                      . +./ 6 j.j.j.j.. . . & . . . . . .                                                       ",
"                                        ' / d j.@. .+.0 5 $ 5 . q 5 $ 1 0                                                       ",
"                                        . / j.+.s 1 v h.} t 8.= h.8.e ~ h.v 1 .                                                 ",
"                                      k ` / / ` l >.g.h.~ t 8.Q D i.=.D q.h.>.l                                                 ",
"                                      6 6 / +.` U h.h.q.= w q.h.= h.h.q.t h.h.U                                                 ",
"                                      . . / $.` U h.h.8.. t 8.h.= g.g.h.5 h.h.U                                                 ",
"                                            . . U h.g.1 h.-.5 q.r.5 =.8.a.. W U .                                               ",
"                                              5 >.9.U J a.-.1 t.q.1 =.W I M J J 5                                               ",
"                                            . v h.W . h.4.D R v a.P D 4.5 a.x D v .                                             ",
"                                            . x h.W . h.} e 9.= g.8.t ~ 1 a.x M x .                                             ",
"                                            0 h.B v h.8.x h.a., g.h.h.h.1 a.v B a.0                                             ",
"                                            0 t.D J g.1 g.g.h.1.= g.g.h.x 1.t.~ q $                                             ",
"                                            1 P } e.-.x a.i.4.e t 4.u.h.h.q I 9.h.0                                             ",
"                                            . D i.} 1 q.h.4.e 4.>.t 1.h.h.6.v P h.0                                             ",
"                                            . x h.Q . h.=.l -.a.h.-.p =.h.a.v v h.0                                             ",
"                                            0 h.v v a.h.Q p 9.a.t.. . . 6.a.g.R W 0                                             ",
"                                          . 0 h.D v a.7.p h.h.a.q.. . . . . R a.x . .                                           ",
"                                          . 0 h.=.=.a.F ~ h.h.P D . . . . . p =.x . .                                           ",
"                                        . p =.h.h.-.x =.h.7.D & . . . . . . . 1 P = d `                                         ",
"                                        . J 8.F J v 6.q.1 = . . . . . . . . . . Q 0 k +..                                       ",
"                                        . . 0 h.D x a.. . . .       . . . . . . . . . 6 `                                       ",
"                                        . , x -.p t -.. . . .       . . . . . .   . . 4 ` 3                                     ",
"                                        . e M . . . . . . . .         . . . . .         d 6 .                                   ",
"                                                    . . . .           . . . . .                                                 ",
"                                                      . . .           . . .                                                     ",
"                                                      . . .           . . .                                                     ",
"                                                      . . .             . .                                                     ",
"                                                      . .               . .                                                     ",
"                                                                                                                                ",
"                                                                                                                                ",
"                                                                                                                                ",
"                                                                                                                                ",
"                                                                                                                                ",
"                                                                                                                                ",
"                                                                                                                                "
};
