/* XPM */
static char *result[] = {
/* columns rows colors chars-per-pixel */
"64 64 195 2 ",
"   c #010101",
".  c #090103",
"X  c #090909",
"o  c #060807",
"O  c #130304",
"+  c #15050A",
"@  c #1D060C",
"#  c #12090B",
"$  c #110B15",
"%  c #1C0B11",
"&  c #19131F",
"*  c #171518",
"=  c #0F0C15",
"-  c #21060E",
";  c #22080E",
":  c #240B12",
">  c #2C0C16",
",  c #350A16",
"<  c #3B0917",
"1  c #3A0C19",
"2  c #241017",
"3  c #261419",
"4  c #2A1319",
"5  c #3D121D",
"6  c #282114",
"7  c #3D1A25",
"8  c #381621",
"9  c #242726",
"0  c #282828",
"q  c #323534",
"w  c #393939",
"e  c #3C282D",
"r  c #490F1E",
"t  c #470D1D",
"y  c #42111D",
"u  c #5E241F",
"i  c #4B0E20",
"p  c #520E21",
"a  c #5D0E24",
"s  c #4E1122",
"d  c #431B25",
"f  c #471F29",
"g  c #4B1D2B",
"h  c #451524",
"j  c #521124",
"k  c #5A1125",
"l  c #581B29",
"z  c #611425",
"x  c #64152B",
"c  c #6A142B",
"v  c #6F1F22",
"b  c #79142F",
"n  c #6C1A31",
"m  c #751631",
"M  c #791632",
"N  c #721931",
"B  c #7A1832",
"V  c #46212B",
"C  c #4C212D",
"Z  c #4E2733",
"A  c #5D2938",
"S  c #592533",
"D  c #612221",
"F  c #6F2724",
"G  c #752626",
"H  c #602435",
"J  c #632B3C",
"K  c #6B2B3E",
"L  c #6C2036",
"P  c #63313F",
"I  c #66332D",
"U  c #4A4736",
"Y  c #6B503A",
"T  c #543941",
"R  c #593740",
"E  c #742D42",
"W  c #7C2B42",
"Q  c #683A46",
"!  c #733245",
"~  c #793147",
"^  c #7C3349",
"/  c #793C4E",
"(  c #7C3C50",
")  c #4E376C",
"_  c #50366C",
"`  c #573C75",
"'  c #484445",
"]  c #6D4953",
"[  c #6D555B",
"{  c #616044",
"}  c #594274",
"|  c #736368",
" . c #910D32",
".. c #8D1A3A",
"X. c #851838",
"o. c #951537",
"O. c #93173A",
"+. c #941B3C",
"@. c #981D3F",
"#. c #862D2B",
"$. c #88282D",
"%. c #86213D",
"&. c #A4373A",
"*. c #8E1F40",
"=. c #981B41",
"-. c #862A44",
";. c #9B2444",
":. c #9D2A49",
">. c #952847",
",. c #84334B",
"<. c #8A364F",
"1. c #82394E",
"2. c #97334E",
"3. c #9F2F50",
"4. c #8A3E53",
"5. c #833C51",
"6. c #933D56",
"7. c #963F59",
"8. c #983D56",
"9. c #A22C4D",
"0. c #A02446",
"q. c #A0314F",
"w. c #BA3E41",
"e. c #A93656",
"r. c #AA3957",
"t. c #AC3A5A",
"y. c #A43755",
"u. c #C53F40",
"i. c #8B4057",
"p. c #9B425B",
"a. c #954058",
"s. c #AA405E",
"d. c #A0435F",
"f. c #BA4349",
"g. c #876848",
"h. c #9A4662",
"j. c #AF4867",
"k. c #A64761",
"l. c #B44563",
"z. c #BC4D6D",
"x. c #B74A69",
"c. c #B5516D",
"v. c #BC506E",
"b. c #BE4F70",
"n. c #B85170",
"m. c #CA4C4C",
"M. c #C5544C",
"N. c #C15C52",
"B. c #FE5654",
"V. c #F95953",
"C. c #EF5056",
"Z. c #E9675E",
"A. c #C14F6E",
"S. c #C15173",
"D. c #FF7E6F",
"F. c #A08161",
"G. c #BEA677",
"H. c #CE856A",
"J. c #FD866C",
"K. c #FE8E6E",
"L. c #FF967E",
"P. c #FD9777",
"I. c #FE8875",
"U. c #D2AE7C",
"Y. c #D5B377",
"T. c #C1A775",
"R. c #FDAC7D",
"E. c #715495",
"W. c #684C8B",
"Q. c #AFA880",
"!. c #FF9B82",
"~. c #C5BA8C",
"^. c #FFBB84",
"/. c #E9BF96",
"(. c #CFC59A",
"). c #FFC68A",
"_. c #FFD38D",
"`. c #FED691",
"'. c #FFD992",
"]. c #FEDE9D",
"[. c #F1C79C",
"{. c #E9DFAC",
"}. c #F5CEA6",
"|. c #E9E0AD",
" X c #FEE6A7",
".X c #FFEDB6",
"XX c #F9E4B4",
"oX c #FEF4BC",
"OX c #CBCBC4",
"+X c #FFF7C1",
"@X c #EEEDDF",
"#X c #FFFCE3",
"$X c #FFFDEB",
"%X c #FDFDF5",
"&X c None",
/* pixels */
"&X&X&X&X&X&X&X&X&X&X&X&X&X&X&X&X&X&X&X&X&X&X&X&X&X&X&X&X&X&X&X&X&X&X&X&X&X&X&X&X&X&X&X&X&X&X&X&X&X&X&X&X&X&X&X&X&X&X&X&X&X&X&X&X",
"&X&X&X&X&X&X&X&X&X&X&X&X&X&X&X&X&X&X&X&X&X&X&X&X&X&X&X&X&X&X&X&X&X&X&X&X&X&X&X&X&X&X&X&X&X&X&X&X&X&X&X&X&X&X&X&X&X&X&X&X&X&X&X&X",
"&X&X&X&X&X&X&X&X&X&X&X&X&X&X&X&X&X&X&X&X&X&X&X&X&X&X&X&X&X&X&X&X&X&X&X&X&X&X&X&X&X&X&X&X&X&X&X&X&X&X&X&X&X&X&X&X&X&X&X&X&X&X&X&X",
"&X&X&X&X&X&X&X&X&X&X&X&X&X&X&X&X&X&X&X&X&X&X&X&X&X&X&X&X&X&X&X&X&X&X&X&X&X&X&X&X&X&X&X&X&X&X&X&X&X&X&X&X&X&X&X&X&X&X&X&X&X&X&X&X",
"&X&X&X&X&X&X&X&X&X&X&X&X&X&X&X&X&X&X&X&X&X&X&X&X&X&X&X&X&X&X&X&X&X&X&X&X&X&X&X&X&X&X&X&X&X&X&X&X&X&X&X&X&X&X&X&X&X&X&X&X&X&X&X&X",
"&X&X&X&X&X&X&X&X&X&X&X&X&X&X&X&X&X&X&X&X&X&X&X&X&X&X&X&X&X&X&X&X&X&X&X&X&X&X&X&X&X&X&X&X&X&X&X&X&X&X&X&X&X&X&X&X&X&X&X&X&X&X&X&X",
"&X&X&X&X&X&X&X&X&X&X&X&X&X&X&X&X&X&X&X&X&X&X&X&X&X&X&X&X&X&X&X&X&X&X&X&X&X&X&X&X&X&X&X&X&X&X&X&X&X&X&X&X&X&X&X&X&X&X&X&X&X&X&X&X",
"&X&X&X&X&X&X&X&X&X&X&X&X&X&X&X&X&X&X&X&X&X&X&X&X&X&X&X&X&X&X&X&X&X&X&X&X&X&X&X&X&X&X&X&X&X&X&X&X&X&X&X&X&X&X&X&X&X&X&X&X&X&X&X&X",
"&X&X&X&X&X&X&X&X&X&X&X&X&X&X&X&X&X&X&X&X&X&X&X&X&X&X&X&X&X&X&X&X&X&X&X&X&X&X&X&X&X&X&X&X&X&X&X&X&X&X&X&X&X&X&X&X&X&X&X&X&X&X&X&X",
"&X&X&X&X&X&X&X&X&X&X&X&X&X&X&X&X&X&X&X&X&X&X&X&X&X&X&X&X&X&X&X&X&X&X&X&X&X&X&X&X&X&X&X&X&X&X&X&X&X&X&X&X&X&X&X&X&X&X&X&X&X&X&X&X",
"&X&X&X&X&X&X&X&X&X&X&X&X&X&X&X&X&X&X  &X&X&X&X&X&X&X&X&X&X&X&X&X&X&X&X&X&X&X&X&X&X&X&X&X&X&X&X&X&X&X&X&X&X&X&X&X&X&X&X&X&X&X&X&X",
"&X&X&X&X&X&X&X&X&X&X&X&X&X&X&X&X&X% |   &X&X&X&X&X&X&X&X&X&X&X&X&X&X&X&X&X&X&X&X&X&X&X&X&X&X&X&X&X&X&X&X&X&X&X&X&X&X&X&X&X&X&X&X",
"&X&X&X&X&X&X&X&X&X&X&X&X&X&X&X&X  A J * &X&X&X&X&X&X&X&X&X&X&X&X&X&X&X&X&X&X&X&X&X&X&X&X&X&X&X&X&X&X&X&X&X&X&X&X&X&X&X&X&X&X&X&X",
"&X&X&X&X&X&X&X&X&X&X&X&X&X&X&X&X  l l   &X&X&X&X&X&X&X&X&X&X&X&X&X&X&X&X&X&X&X&X&X&X&X&X&X&X&X&X&X&X&X&X&X&X&X&X&X&X&X&X&X&X&X&X",
"&X&X&X&X&X&X&X&X&X&X&X&X&X&X&X&X  s r   &X&X&X&X&X&X&X&X&X&X&X&X&X&X&X&X&X&X&X&X&X&X&X&X&X&X&X&X&X&X&X&X&X&X&X&X&X&X&X&X&X&X&X&X",
"&X&X&X&X&X&X&X&X&X&X&X&X&X&X&X&X&X  K z.  &X&X&X&X&X&X&X&X&X&X&X&X&X&X&X&X&X&X&X&X&X&X&X&X&X&X&X&X&X&X&X&X&X&X&X&X&X&X&X&X&X&X&X",
"&X&X&X&X&X&X&X&X&X&X&X&X&X&X&X&X&X  K v.    &X&X&X&X&X&X&X&X&X&X&X&X&X&X&X&X&X&X&X&X&X&X&X&X&X&X&X&X&X&X&X&X&X&X&X&X&X&X&X&X&X&X",
"&X&X&X&X&X&X&X&X&X&X&X&X&X&X&X&X&X&X  S K ]     &X&X&X&X&X&X&X&X&X&X&X&X&X&X&X&X&X&X&X&X&X&X&X&X&X&X&X&X&X&X&X&X&X&X&X&X&X&X&X&X",
"&X&X&X&X&X&X&X&X&X&X&X&X&X&X&X&X&X&X&X  3.>.J K   &X&X&X&X&X&X&X&X&X&X&X&X&X&X&X&X&X&X&X&X&X&X&X&X&X&X&X&X&X&X&X&X&X&X&X&X&X&X&X",
"&X&X&X&Xo   o       9 &X&X&X&X&X&X&X&Xo >.9.n.c.o o         &X&X&X&X&X&X&X&X&X&X&X&X&X&X&X&X&X&X&X&X&X&X&X&X&X&X&X&X&X&X&X&X&X&X",
"&X&X&X  ..+.9.z.n.z.k.              &X&X    a +.z.n.A.b.n.  q &X&X&X&X&X&X&X&X&X&X&X&X&X&X&X&X&X                    &X&X&X&X&X&X",
"&X&X&X  l x n ~ ~ r.3.5 f V V V V |   &X&X    x ~ ~ <.t.z.C T   &X&X&X&X&X&X&X&X&X&X&X&X&X      V , 1 1 d V V V f       &X&X&X&X",
"&X&X&X&X          h 1 y Z Z Z r.v.6.]   &X&X&X        y >.z.a.q   &X&X&X&X&X&X&X&X&X&X&X  Q a a ..r.t.t.x.n.A.S.b.1.K !   &X&X&X",
"&X&X&X&X&X&X&X&X&X*           ;.v.v.P       &X&X&X&X&X. M z.a.q   &X&X&X&X&X&X&X&X&X&X&Xo p +.+.+.A.v.z.v.v.v.z.z.A.z.j.o   &X&X",
"&X&X&X&X&X&X&X&X&X&X&X&X&X&X&X  . j y.x.z.~ o o o o &X&X  +.;.6.4   &X&X&X&X&X&X&X&X&Xo O.+.O.+.x..   .   .   8 b.b.S.A.z.A   &X",
"&X&X&X&X&X&X&X&X&X&X&X&X&X&X&X&X  [ 5 d :.%.W 6.i.i.    &X1 i :.4.T w &X&X&X&X&X&X&X&X  O.@.c , 7 w.N.T.~.f.m.&.f d g b.n.J   &X",
"&X&X&X&X&X&X&X&X&X&X&X&X&X&X&X&X&X      k a L ~ r.r.,.  &X  @ ;.x.:   &X&X&X&X&X&X&X  1 +.B z D Y J.P. X.X!.P.H.{ I v ^ A.1.  &X",
"&X&X&X&X&X&X&X&X              9 &X&X&X&X        ..+.9.z.4 . - ;.l.4 . &X&X&X&X&X&X  a +.+.p G B.)._. XoXoXoXoXoXoXI.C.# b.b.C   ",
"&X&X&X&X        ( a.7.7.a.7.7.4.                @ - s ;.B p.^ 5 %.8.a.      &X&X&X  a +.+.j Y R._._.].oXoX#X$X$X%XXX}.X A.A.C . ",
"&X&X  . k.n.s.+.+.O...O.O.O.O.z.n.c.c.c.n.n.c.c.n.n.~     ..+.N @ n ..;.n.V       . a +.o #.P.`._.. .   .     ' %X%X#X{.  H C   ",
"&X  2 2 s.l.r.+.+.b N N N N N l.l.l.l.l.l.l.l.l.l.A.1.4 3 :.;.X., X.+.;.x.l - - - O k +.o #.K.'.Y.# = = & & & ' OX@X#X[.o A C   ",
"  P p.p.B B B B B             M B M B B M B B B B <.7.d.p.v.A.x.:.;.;.;.+.+.+.@.+.a a +.  #.K.'.6 ) ) ` W.E.E.`   Q.XXZ.  A C   ",
"&X  4 4 - : - - - &X&X&X&X&X&X          : ; ; ; % 2 3 3 3 c.b.z.l.l.l.t.O.+.+.O.+.a a +.  #.P.'.3 ) ) ) ` ` } } . Q..X/.  A C   ",
"&X&X&X&X&X&X&X&X&X&X&X&X&X&X&X&X&X&X&X&X&X&X&X  m M -.a.a.b.d.2 2 : 3 ;.+.+.N @ @ + a +.  g.).'.Y.% $ = = = $ U (.XXoX{.  A C   ",
"&X&X&X&X&X&X&X&X&X&X&X&X&X&X&X&X&X&X&X&X.       *.+.:.c.z.c.7.#   o   =.=...c   .   a +.. g._.'.`.O   o o . . U +X.X+X{.. A C   ",
"&X&X&X&X&X&X&X&X&X&X&X&X&X&X&X&X@ - : 3 ;.:.2.7.7.7./       0 &Xe B :.5.      &X&X  a +.+.j F B.R.'._.'. XoXoX.X}.I.C.# b.b.C   ",
"&X&X&X&X&X&X&X&X&X&X&X  .     + +.+.y.c.z.c.Z .   .   &X&X    : M l.c.  &X&X&X&X&X  a +...p F B.V.`._.'.'..XoX[.V.B.C.+ b.b.C   ",
"&X&X&X&X&X            c E ~ ^ ,.t.t.E V V f   &X&X&X&X&X  k x ,.r.S V   &X&X&X&X&X&X  1 +.b l u D J.P._.`.L.L./.u u z ^ b.1.  &X",
"&X&X&X&X  h , , < d g :.x.h.4.i.i.i.Q       &X&X&X&X&X  R >.:.y.4.    &X&X&X&X&X&X&X&X  +.+.c , , f.N.G.G.m.m.g.V 7 S z.b.A   &X",
"&X&X  . . ..o.o.o.l.z.z.x.7 o o o .   &X&X&X&X&X&X&X  . 7.z.x.b : &X&X&X&X&X&X&X&X&X&Xo  ...+.+.@.  . . . . . 8 v.z.b.b.n.J   &X",
"&X  r +.A.O               &X&X&X&X&X&X&X&X&X&X&X.   1 +.+.+.M   &X&X&X&X&X&X&X&X&X&X&X&X  p @.O.@.+.+.+.+.+.;.z.z.S.S.j.    &X&X",
"&X  > a L   &X&X&X&X&X&X&X&X&X&X&X&X&X&X&X&X    y f E y.;.j H   &X&X&X&X&X&X&X&X&X&X&X&X&X  a a ..+.+.+.@.+.+.r.r.x.n.!   &X&X&X",
"&X&X      &X&X&X&X&X&X&X&X&X&X&X&X&X&X&X&X  P a +.;.-.g 1     &X&X&X&X&X&X&X&X&X&X&X&X&X&X&X    g < < < < < < < < h C   &X&X&X&X",
"&X&X&X&X&X&X&X&X&X&X&X&X&X&X&X&X&X&X&X&X&X  k +.+.O.k     &X&X&X&X&X&X&X&X&X&X&X&X&X&X&X&X&X&X&X                    X &X&X&X&X&X",
"&X&X&X&X&X&X&X&X&X&X&X&X&X&X&X&X&X&X  .   < +.O.O.,   &X&X&X&X&X&X&X&X&X&X&X&X&X&X&X&X&X&X&X&X&X&X&X&X&X&X&X&X&X&X&X&X&X&X&X&X&X",
"&X&X&X&X&X&X&X&X&X&X&X&X&X&X&X&X    Q p p c c j p     &X&X&X&X&X&X&X&X&X&X&X&X&X&X&X&X&X&X&X&X&X&X&X&X&X&X&X&X&X&X&X&X&X&X&X&X&X",
"&X&X&X&X&X&X&X&X&X&X&X&X&X&X&X  i t c @.p p       &X&X&X&X&X&X&X&X&X&X&X&X&X&X&X&X&X&X&X&X&X&X&X&X&X&X&X&X&X&X&X&X&X&X&X&X&X&X&X",
"&X&X&X&X&X&X&X&X&X&X&X&X&X    + +.+.+.+..   &X&X&X&X&X&X&X&X&X&X&X&X&X&X&X&X&X&X&X&X&X&X&X&X&X&X&X&X&X&X&X&X&X&X&X&X&X&X&X&X&X&X",
"&X&X&X&X&X&X&X&X&X&X&X&X  ( p.4.+ + + + &X&X&X&X&X&X&X&X&X&X&X&X&X&X&X&X&X&X&X&X&X&X&X&X&X&X&X&X&X&X&X&X&X&X&X&X&X&X&X&X&X&X&X&X",
"&X&X&X&X&X&X&X&X&X&X&X&X&X      &X&X&X&X&X&X&X&X&X&X&X&X&X&X&X&X&X&X&X&X&X&X&X&X&X&X&X&X&X&X&X&X&X&X&X&X&X&X&X&X&X&X&X&X&X&X&X&X",
"&X&X&X&X&X&X&X&X&X&X&X&X&X&X&X&X&X&X&X&X&X&X&X&X&X&X&X&X&X&X&X&X&X&X&X&X&X&X&X&X&X&X&X&X&X&X&X&X&X&X&X&X&X&X&X&X&X&X&X&X&X&X&X&X",
"&X&X&X&X&X&X&X&X&X&X&X&X&X&X&X&X&X&X&X&X&X&X&X&X&X&X&X&X&X&X&X&X&X&X&X&X&X&X&X&X&X&X&X&X&X&X&X&X&X&X&X&X&X&X&X&X&X&X&X&X&X&X&X&X",
"&X&X&X&X&X&X&X&X&X&X&X&X&X&X&X&X&X&X&X&X&X&X&X&X&X&X&X&X&X&X&X&X&X&X&X&X&X&X&X&X&X&X&X&X&X&X&X&X&X&X&X&X&X&X&X&X&X&X&X&X&X&X&X&X",
"&X&X&X&X&X&X&X&X&X&X&X&X&X&X&X&X&X&X&X&X&X&X&X&X&X&X&X&X&X&X&X&X&X&X&X&X&X&X&X&X&X&X&X&X&X&X&X&X&X&X&X&X&X&X&X&X&X&X&X&X&X&X&X&X",
"&X&X&X&X&X&X&X&X&X&X&X&X&X&X&X&X&X&X&X&X&X&X&X&X&X&X&X&X&X&X&X&X&X&X&X&X&X&X&X&X&X&X&X&X&X&X&X&X&X&X&X&X&X&X&X&X&X&X&X&X&X&X&X&X",
"&X&X&X&X&X&X&X&X&X&X&X&X&X&X&X&X&X&X&X&X&X&X&X&X&X&X&X&X&X&X&X&X&X&X&X&X&X&X&X&X&X&X&X&X&X&X&X&X&X&X&X&X&X&X&X&X&X&X&X&X&X&X&X&X",
"&X&X&X&X&X&X&X&X&X&X&X&X&X&X&X&X&X&X&X&X&X&X&X&X&X&X&X&X&X&X&X&X&X&X&X&X&X&X&X&X&X&X&X&X&X&X&X&X&X&X&X&X&X&X&X&X&X&X&X&X&X&X&X&X",
"&X&X&X&X&X&X&X&X&X&X&X&X&X&X&X&X&X&X&X&X&X&X&X&X&X&X&X&X&X&X&X&X&X&X&X&X&X&X&X&X&X&X&X&X&X&X&X&X&X&X&X&X&X&X&X&X&X&X&X&X&X&X&X&X",
"&X&X&X&X&X&X&X&X&X&X&X&X&X&X&X&X&X&X&X&X&X&X&X&X&X&X&X&X&X&X&X&X&X&X&X&X&X&X&X&X&X&X&X&X&X&X&X&X&X&X&X&X&X&X&X&X&X&X&X&X&X&X&X&X",
"&X&X&X&X&X&X&X&X&X&X&X&X&X&X&X&X&X&X&X&X&X&X&X&X&X&X&X&X&X&X&X&X&X&X&X&X&X&X&X&X&X&X&X&X&X&X&X&X&X&X&X&X&X&X&X&X&X&X&X&X&X&X&X&X",
"&X&X&X&X&X&X&X&X&X&X&X&X&X&X&X&X&X&X&X&X&X&X&X&X&X&X&X&X&X&X&X&X&X&X&X&X&X&X&X&X&X&X&X&X&X&X&X&X&X&X&X&X&X&X&X&X&X&X&X&X&X&X&X&X",
"&X&X&X&X&X&X&X&X&X&X&X&X&X&X&X&X&X&X&X&X&X&X&X&X&X&X&X&X&X&X&X&X&X&X&X&X&X&X&X&X&X&X&X&X&X&X&X&X&X&X&X&X&X&X&X&X&X&X&X&X&X&X&X&X",
"&X&X&X&X&X&X&X&X&X&X&X&X&X&X&X&X&X&X&X&X&X&X&X&X&X&X&X&X&X&X&X&X&X&X&X&X&X&X&X&X&X&X&X&X&X&X&X&X&X&X&X&X&X&X&X&X&X&X&X&X&X&X&X&X",
"&X&X&X&X&X&X&X&X&X&X&X&X&X&X&X&X&X&X&X&X&X&X&X&X&X&X&X&X&X&X&X&X&X&X&X&X&X&X&X&X&X&X&X&X&X&X&X&X&X&X&X&X&X&X&X&X&X&X&X&X&X&X&X&X"
};
