/* XPM */
static char *result[] = {
/* columns rows colors chars-per-pixel */
"64 64 195 2 ",
"   c #010101",
".  c #090103",
"X  c #090909",
"o  c #060807",
"O  c #130304",
"+  c #15050A",
"@  c #1D060C",
"#  c #12090B",
"$  c #110B15",
"%  c #1C0B11",
"&  c #19131F",
"*  c #171518",
"=  c #0F0C15",
"-  c #21060E",
";  c #22080E",
":  c #240B12",
">  c #2C0C16",
",  c #350A16",
"<  c #3B0917",
"1  c #3A0C19",
"2  c #241017",
"3  c #261419",
"4  c #2A1319",
"5  c #3D121D",
"6  c #282114",
"7  c #3D1A25",
"8  c #381621",
"9  c #242726",
"0  c #282828",
"q  c #323534",
"w  c #393939",
"e  c #3C282D",
"r  c #490F1E",
"t  c #470D1D",
"y  c #42111D",
"u  c #5E241F",
"i  c #4B0E20",
"p  c #520E21",
"a  c #5D0E24",
"s  c #4E1122",
"d  c #431B25",
"f  c #471F29",
"g  c #4B1D2B",
"h  c #451524",
"j  c #521124",
"k  c #5A1125",
"l  c #581B29",
"z  c #611425",
"x  c #64152B",
"c  c #6A142B",
"v  c #6F1F22",
"b  c #79142F",
"n  c #6C1A31",
"m  c #751631",
"M  c #791632",
"N  c #721931",
"B  c #7A1832",
"V  c #46212B",
"C  c #4C212D",
"Z  c #4E2733",
"A  c #5D2938",
"S  c #592533",
"D  c #612221",
"F  c #6F2724",
"G  c #752626",
"H  c #602435",
"J  c #632B3C",
"K  c #6B2B3E",
"L  c #6C2036",
"P  c #63313F",
"I  c #66332D",
"U  c #4A4736",
"Y  c #6B503A",
"T  c #543941",
"R  c #593740",
"E  c #742D42",
"W  c #7C2B42",
"Q  c #683A46",
"!  c #733245",
"~  c #793147",
"^  c #7C3349",
"/  c #793C4E",
"(  c #7C3C50",
")  c #4E376C",
"_  c #50366C",
"`  c #573C75",
"'  c #484445",
"]  c #6D4953",
"[  c #6D555B",
"{  c #616044",
"}  c #594274",
"|  c #736368",
" . c #910D32",
".. c #8D1A3A",
"X. c #851838",
"o. c #951537",
"O. c #93173A",
"+. c #941B3C",
"@. c #981D3F",
"#. c #862D2B",
"$. c #88282D",
"%. c #86213D",
"&. c #A4373A",
"*. c #8E1F40",
"=. c #981B41",
"-. c #862A44",
";. c #9B2444",
":. c #9D2A49",
">. c #952847",
",. c #84334B",
"<. c #8A364F",
"1. c #82394E",
"2. c #97334E",
"3. c #9F2F50",
"4. c #8A3E53",
"5. c #833C51",
"6. c #933D56",
"7. c #963F59",
"8. c #983D56",
"9. c #A22C4D",
"0. c #A02446",
"q. c #A0314F",
"w. c #BA3E41",
"e. c #A93656",
"r. c #AA3957",
"t. c #AC3A5A",
"y. c #A43755",
"u. c #C53F40",
"i. c #8B4057",
"p. c #9B425B",
"a. c #954058",
"s. c #AA405E",
"d. c #A0435F",
"f. c #BA4349",
"g. c #876848",
"h. c #9A4662",
"j. c #AF4867",
"k. c #A64761",
"l. c #B44563",
"z. c #BC4D6D",
"x. c #B74A69",
"c. c #B5516D",
"v. c #BC506E",
"b. c #BE4F70",
"n. c #B85170",
"m. c #CA4C4C",
"M. c #C5544C",
"N. c #C15C52",
"B. c #FE5654",
"V. c #F95953",
"C. c #EF5056",
"Z. c #E9675E",
"A. c #C14F6E",
"S. c #C15173",
"D. c #FF7E6F",
"F. c #A08161",
"G. c #BEA677",
"H. c #CE856A",
"J. c #FD866C",
"K. c #FE8E6E",
"L. c #FF967E",
"P. c #FD9777",
"I. c #FE8875",
"U. c #D2AE7C",
"Y. c #D5B377",
"T. c #C1A775",
"R. c #FDAC7D",
"E. c #715495",
"W. c #684C8B",
"Q. c #AFA880",
"!. c #FF9B82",
"~. c #C5BA8C",
"^. c #FFBB84",
"/. c #E9BF96",
"(. c #CFC59A",
"). c #FFC68A",
"_. c #FFD38D",
"`. c #FED691",
"'. c #FFD992",
"]. c #FEDE9D",
"[. c #F1C79C",
"{. c #E9DFAC",
"}. c #F5CEA6",
"|. c #E9E0AD",
" X c #FEE6A7",
".X c #FFEDB6",
"XX c #F9E4B4",
"oX c #FEF4BC",
"OX c #CBCBC4",
"+X c #FFF7C1",
"@X c #EEEDDF",
"#X c #FFFCE3",
"$X c #FFFDEB",
"%X c #FDFDF5",
"&X c None",
/* pixels */
"&X&X&X&X&X&X&X&X&X&X&X&X&X&X&X&X&X&X&X&X&X&X&X&X&X&X&X&X&X&X&X&X  &X&X&X&X&X&X&X&X&X&X&X&X&X&X&X&X&X&X&X&X&X&X&X&X&X&X&X&X&X&X&X",
"&X&X&X&X&X&X&X&X&X&X&X&X&X&X&X&X&X&X&X&X&X&X    &X&X&X&X&X&X&X  P   &X&X&X&X&X&X&X&X&X&X&X&X&X&X&X&X&X&X&X&X&X&X&X&X&X&X&X&X&X&X",
"&X&X&X&X&X&X&X&X&X&X&X&X&X&X&X&X&X&X&X&X&X  > s   &X&X&X&X&X&X4 p.4   &X&X&X&X&X&X&X&X&X&X&X&X&X&X&X&X&X&X&X&X&X&X&X&X&X&X&X&X&X",
"&X&X&X&X&X&X&X&X&X&X&X&X&X&X&X&X&X&X&X&X&X  a O.. &X&X&X&X&X&X4 p.2   &X&X&X&X&X&X&X    &X&X&X&X&X&X&X&X&X&X&X&X&X&X&X&X&X&X&X&X",
"&X&X&X&X&X&X&X&X&X&X&X&X&X&X&X&X&X&X&X&X&X  K z.    &X&X&X&X&X; B s.k.  &X&X&X&X&X  x ..o &X&X&X&X&X&X&X&X&X&X&X&X&X&X&X&X&X&X&X",
"&X&X&X&X&X&X&X&X&X&X&X&X&X&X&X&X&X&X&X&X&X&X  O ..s   &X&X&X&X; B l.n.  &X&X&X&X&X  k +.  &X&X&X&X&X&X&X&X&X&X&X&X&X&X&X&X&X&X&X",
"&X&X&X&X&X&X&X&X&X&X&X&X&X&X&X&X&X&X&X&X&X&X&X  O.<   &X&X&X&X- B r.s.  &X&X&X&X&X  n :.o &X&X&X&X&X&X&X&X&X&X&X&X&X&X&X&X&X&X&X",
"&X&X&X&X&X&X&X&X&X&X&X&X&X&X&X&X&X&X&X&X&X&X&X  O.,   &X&X&X&X- B +.+.  &X&X&X&X&X  ~ v.o &X&X&X&X&X&X&X&X&X&X&X&X&X&X&X&X&X&X&X",
"&X&X&X&X&X&X&X&X&X&X&X&X&X&X&X&X&X&X&X&X&X&X&X  o.,   &X&X&X&X- B +.+./   &X&X&X&X  ~ b.o &X&X&X&X&X&X&X&X&X&X&X&X&X&X&X&X&X&X&X",
"&X&X&X&X&X&X&X&X&X&X&X&X&X&X&X&X&X&X&X&X&X&X&X  x.7   &X&X&X&X&X  b +.a.  &X&X&X* h r.z.  &X&X&X&X&X&X&X&X&X&X&X&X&X&X&X&X&X&X&X",
"&X&X&X&X&X&X&X&X&X&X&X&X&X&X&X&X&X&X&X&X&X&X&X  x.s   &X&X&X&X&X  N +.6.  &X&X&X  1 2.k.9 &X&X&X&X&X&X&X&X&X&X&X&X&X&X&X&X&X&X&X",
"&X&X&X&X&X&X&X&X&X&X&X&X&X&X&X&X&X&X&X&X&X&X&X  z.q.c   &X&X&X&X  N +.7.  &X&X&X  y y   &X&X&X&X&X&X&X&X&X&X&X&X&X&X&X&X&X&X&X&X",
"&X&X&X&X&X&X&X&X&X&X&X&X&X&X&X  &X&X&X&X&X&X&X  A.z.W o &X&X&X&X  N O.7.  &X&X&X  C f   &X&X&X&X&X&X&X&X&X&X&X&X&X&X&X&X&X&X&X&X",
"&X&X&X&X&X&X&X&X&X&X&X&X&X&X  (   &X&X&X&X&X&X&X8 h.~   &X&X&X&X  N +.7.  &X&X&X  Z V   &X&X&X&X&X&X&X&X&X&X&X&X&X&X&X&X&X&X&X&X",
"&X&X&X&X&X&X&X&X&X&X&X&X&X&X  p.  &X&X&X&X&X&X&Xo 4.~   &X&X&X&X  N O.a.  &X&X&X  Z V   &X&X&X&X&X&X&X&X&X&X&X&X&X&X&X&X&X&X&X&X",
"&X&X&X&X&X&X&X&X&X&X&X&X&X&X  4.+   &X&X&X&X&X&Xo 4.,.+ &X&X&X  M l.x.4.0 &X&X  >.r.V   &X&X&X&X&X&X&X&X&X&X&X&X&X&X&X&X&X&X&X&X",
"&X&X&X&X&X&X&X&X&X&X&X&X&X&X&X+ @.r   &X&X&X&X&X  i.t.+.% &X&X  M l.c.  &X&X  . n.v.V   &X&X&X&X&X      &X&X&X&X&X&X&X&X&X&X&X&X",
"&X&X&X&X&X&X&X&X&X&X&X&X&X&X&X+ O.t   &X&X&X&X&Xo i.t.+.; &X&X  B l.n.  &X  [ p z.6.|   &X&X&X    s k A % &X&X&X&X&X&X&X&X&X&X&X",
"&X&X&X&X&X&X&X&X&X&X&X&X&X&X&X+ @.m Q   &X&X&X&X  Q W q.: &X&X  B l.n.  &X  8 y.J ]   &X&X&X  K K r l J |   &X&X&X&X&X&X&X&X&X&X",
"&X&X&X&X&X&X&X&X&X&X&X&X&X&X&X+ O.+.s . &X&X&X&X&X  V c.3 &X&X  M l.c.  &X  7 b.    &X&X. o S z.n.    *   &X&X&X&X&X&X&X&X&X&X&X",
"&X&X&X&X&X&X&X&X&X&X&X&X&X&X&X&X. p s . &X&X&X&X&X  f z.>.. &X: B l.c.    a :.x.o &X&X  =.q.K     &X&X&X&X&X&X&X&X&X&X&X&X&X&X&X",
"&X&X&X&X&X&X&X&X&X&X&X&X&X&X&X&X  p c <     &X&X&X  V c.:.  &X; B l.c.  o k -.E   &X    9.<.]   &X&X&X&X&X&X&X&X&X&X&X&X&X&X&X&X",
"&X&X&X&X&X&X&X&X&X&X&X&X&X&X&X&X&X  x +.a P   &X&X&X  S 2.  &X- B l.n.    n W X &X&X  a n.K   &X&X&X&X&X&X&X&X&X&X&X&X&X&X&X&X&X",
"&X&X&X&X&X&X&X&X&X&X&X&X&X&X&X&X&X  s +.+.a   &X&X&X&X. a.    : B l.n.    ~ 6.o &X  z +.c.J   &X&X&X&X&X&X&X&X&X&X&X&X&X&X&X&X&X",
"&X&X&X&X&X&X&X&X&X&X&X&X&X&X&X&X&X  s +.+.+.1 o &X&X&X  7.*.m % B l.n.@ +.r.i.o &X  ~ z.o   &X&X&X&X&X&X&X&X&X&X&X&X&X&X&X&X&X&X",
"&X&X&X&X&X&X&X&X&X&X&X&X&X&X&X&X&X&X  , +.;.f   &X&X&X  7.=.M : <.z.c.; +.r.4.o &X  ~ b.  &X&X&X&X&X&X&X&X&X&X&X&X&X&X&X&X&X&X&X",
"&X&X&X&X&X&X&X&X&X&X&X&X&X&X&X&X&X&X    a -.E 1   &X&X  / :.-.3 p.,.! j 9.,.o &X&X  <.n.o &X&X&X&X&X&X&X&X&X&X&X&X&X&X&X&X&X&X&X",
"&X&X&X&X&X&X&X&X&X&X&X&X&X&X&X&X&X&X&X&X  g y.+..   &X&X  c.a.3 p.4   ;.x.    &X. h t.x.  &X&X&X&X&X&X&X&X&X&X&X&X&X&X&X&X&X&X&X",
"&X&X&X&X&X&X&X&X&X&X&X&X&X&X&X&X&X&X&X&X  1 ;.+.8.R   &X  x.7.3 p.4   B 4 &X&X  B >.x.v.  &X&X&X&X&X&X&X&X&X&X&X&X&X&X&X&X&X&X&X",
"&X&X&X&X&X&X&X&X&X&X&X&X&X&X&X&X&X&X&X&X&X  j +.b.>.k o o x.b.c.b.:...p..   1 +.x.z.C o   &X&X&X&X&X&X&X&X&X&X&X&X&X&X&X&X&X&X&X",
"&X&X&X&X&X&X&X&X&X&X&X&X&X&X&X&X&X&X&X&X&X  n M l.9.x   0 7.k.b.b.:.+.^ @ @ r ;.a.p.T q &X&X&X&X&X&X&X&X&X&X&X&X&X&X&X&X&X&X&X&X",
"&X&X&X&X&X&X&X&X&X&X&X&X&X&X&X&X&X&X&X&X&X&X    M y.,.; &XX : b.l.X.N 1 :.;.:.a.q q   &X&X&X&X&X&X&X&X&X&X&X&X&X&X&X&X&X&X&X&X&X",
"&X&X&X&X&X&X&X&X&X&X&X&X&X&X&X&X&X&X&X&X&X&X&X&X: 4.r.B e   2 l.9., + %.l.l.6.4     &X&X&X&X&X&X&X&X&X&X&X&X&X&X&X&X&X&X&X&X&X&X",
"&X&X&X&X&X&X&X&X&X&X&X&X&X&X&X&X&X&X&X&X&X&X&X&X&X  S l.%.  2 l.;.X.n 8.4 > T   &X&X&X&X&X&X&X&X&X&X&X&X&X&X&X&X&X&X&X&X&X&X&X&X",
"&X&X&X&X&X&X&X&X&X&X&X&X&X&X&X&X&X&X&X&X&X&X&X&X&X  V c.;.  2 l.;.O...7.o   w &X&X&X&X&X&X&X&X&X&X&X&X&X&X&X&X&X&X&X&X&X&X&X&X&X",
"&X&X&X&X&X&X&X&X&X&X&X&X&X&X&X&X&X&X&X&X&X&X&X&X&X&X    5.=.;.r.;.;.>.  &X&X&X&X&X&X&X&X&X&X&X&X&X&X&X&X&X&X&X&X&X&X&X&X&X&X&X&X",
"&X&X&X&X&X&X&X&X&X&X&X&X&X&X&X&X&X&X&X&X&X&X&X&X&X&X&X&X  =.+.+.+.l.v.  &X&X&X&X&X&X&X&X&X&X&X&X&X&X&X&X&X&X&X&X&X&X&X&X&X&X&X&X",
"&X&X&X&X&X&X&X&X&X&X&X&X&X&X&X&X&X&X&X&X&X&X&X&X&X&X&X&X  ..+.+.+.S V   &X&X&X&X&X&X&X&X&X&X&X&X&X&X&X&X&X&X&X&X&X&X&X&X&X&X&X&X",
"&X&X&X&X&X&X&X&X&X&X&X&X&X&X&X&X&X&X&X&X&X&X&X&X&X&X&X&X  c m +.+.-   &X&X&X&X&X&X&X&X&X&X&X&X&X&X&X&X&X&X&X&X&X&X&X&X&X&X&X&X&X",
"&X&X&X&X&X&X&X&X&X&X&X&X&X&X&X&X&X&X&X&X&X&X&X&X&X&X&X&X&X  @ +.+.-   &X&X&X&X&X&X&X&X&X&X&X&X&X&X&X&X&X&X&X&X&X&X&X&X&X&X&X&X&X",
"&X&X&X&X&X&X&X&X&X&X&X&X&X&X&X&X&X&X&X&X&X&X&X&X&X&X&X&X&Xo @ +.+.- . &X&X&X&X&X&X&X&X&X&X&X&X&X&X&X&X&X&X&X&X&X&X&X&X&X&X&X&X&X",
"&X&X&X&X&X&X&X&X&X&X&X&X&X&X&X&X&X&X&X&X&X&X&X&X&X&X&X      O a a O o     &X&X&X&X&X&X&X&X&X&X&X&X&X&X&X&X&X&X&X&X&X&X&X&X&X&X&X",
"&X&X&X&X&X&X&X&X&X&X&X&X&X&X&X&X&X&X&X&X&X&X&X&X&X&X  a a a a a a a a a k   &X&X&X&X&X&X&X&X&X&X&X&X&X&X&X&X&X&X&X&X&X&X&X&X&X&X",
"&X&X&X&X&X&X&X&X&X&X&X&X&X&X&X&X&X&X&X&X&X&X&X&Xo   1 +.+.+.+.+.+.+.+.O.+.1   o &X&X&X&X&X&X&X&X&X&X&X&X&X&X&X&X&X&X&X&X&X&X&X&X",
"&X&X&X&X&X&X&X&X&X&X&X&X&X&X&X&X&X&X&X&X&X&X&X   .O.+...+.  o o     o +.+.+.+.o.o   &X&X&X&X&X&X&X&X&X&X&X&X&X&X&X&X&X&X&X&X&X&X",
"&X&X&X&X&X&X&X&X&X&X&X&X&X&X&X&X&X&X&X&X&X&X  p ..+.M j j g.g.#.#.#.$.j j B +.+.j Q   &X&X&X&X&X&X&X&X&X&X&X&X&X&X&X&X&X&X&X&X&X",
"&X&X&X&X&X&X&X&X&X&X&X&X&X&X&X&X&X&X&X&X&X  a @.+.c l F F _.).K.K.K.K.Y G z c +.+.a   &X&X&X&X&X&X&X&X&X&X&X&X&X&X&X&X&X&X&X&X&X",
"&X&X&X&X&X&X&X&X&X&X&X&X&X&X&X&X&X&X&X&X&X  a O.+., u B.B.`.`.'._.'.`.^.B.u , o.+.a   &X&X&X&X&X&X&X&X&X&X&X&X&X&X&X&X&X&X&X&X&X",
"&X&X&X&X&X&X&X&X&X&X&X&X&X&X&X&X&X&X&X&X  f ..+.+.< u B.R.`.Y.6 6 Y.'._.).Y 7 x.+...V   &X&X&X&X&X&X&X&X&X&X&X&X&X&X&X&X&X&X&X&X",
"&X&X&X&X&X&X&X&X&X&X&X&X&X&X&X&X&X&X&X&X  < +.+.. f.J.`.`.O $ ) ) # . `._.J.&.  A.r.,   &X&X&X&X&X&X&X&X&X&X&X&X&X&X&X&X&X&X&X&X",
"&X&X&X&X&X&X&X&X&X&X&X&X&X&X&X&X&X&X&X&X  < +.+.. N.P.`.`.  $ _ _ =   ].].L.M.o v.t.,   &X&X&X&X&X&X&X&X&X&X&X&X&X&X&X&X&X&X&X&X",
"&X&X&X&X&X&X&X&X&X&X&X&X&X&X&X&X&X&X&X&X  < @.+.. G._.`.`.o $ _ ` = . oXoX XG.. v.t.1   &X&X&X&X&X&X&X&X&X&X&X&X&X&X&X&X&X&X&X&X",
"&X&X&X&X&X&X&X&X&X&X&X&X&X&X&X&X&X&X&X&X  < +.+.. T.`.`. X  $ ` W.* . oXoX.X~.o v.z.d   &X&X&X&X&X&X&X&X&X&X&X&X&X&X&X&X&X&X&X&X",
"&X&X&X&X&X&X&X&X&X&X&X&X&X&X&X&X&X&X&X&X  < +.+.. m.L..XoX. $ ` E.&   #XoX!.f.o v.A.V   &X&X&X&X&X&X&X&X&X&X&X&X&X&X&X&X&X&X&X&X",
"&X&X&X&X&X&X&X&X&X&X&X&X&X&X&X&X&X&X&X&X  < @.=.. m.L.oXoX. = ` E.&   $XoXP.u.o z.A.f   &X&X&X&X&X&X&X&X&X&X&X&X&X&X&X&X&X&X&X&X",
"&X&X&X&X&X&X&X&X&X&X&X&X&X&X&X&X&X&X&X&X  < r.z.8 F.U.[..XU U } } ' ' $XoXH.&.8 v.n.V   &X&X&X&X&X&X&X&X&X&X&X&X&X&X&X&X&X&X&X&X",
"&X&X&X&X&X&X&X&X&X&X&X&X&X&X&X&X&X&X&X&X  < r.A.x.f u V.}.+X(.    OX%X$XoX{ f b.x.n.C   &X&X&X&X&X&X&X&X&X&X&X&X&X&X&X&X&X&X&X&X",
"&X&X&X&X&X&X&X&X&X&X&X&X&X&X&X&X&X&X&X&X  h z.n.S.7 u B.D.oXXXQ.Q.@X%XXXI.I 7 b.b.<.    &X&X&X&X&X&X&X&X&X&X&X&X&X&X&X&X&X&X&X&X",
"&X&X&X&X&X&X&X&X&X&X&X&X&X&X&X&X&X&X&X&XX C n.S.v.S z C.C.+X+X.XXX#X$X}.C.v g A.b.K   &X&X&X&X&X&X&X&X&X&X&X&X&X&X&X&X&X&X&X&X&X",
"&X&X&X&X&X&X&X&X&X&X&X&X&X&X&X&X&X&X&X&X&X  ! j.z.A.^ # # {.|./.Z.[.|.X # ^ S.b.j.E   &X&X&X&X&X&X&X&X&X&X&X&X&X&X&X&X&X&X&X&X&X",
"&X&X&X&X&X&X&X&X&X&X&X&X&X&X&X&X&X&X&X&X&X&X    x.n.b.z.A..     o o   A.b.A.b.b.o   &X&X&X&X&X&X&X&X&X&X&X&X&X&X&X&X&X&X&X&X&X&X",
"&X&X&X&X&X&X&X&X&X&X&X&X&X&X&X&X&X&X&X&X&X&X&X  J J 1.b.b.A A A S A H b.b.1.A A   &X&X&X&X&X&X&X&X&X&X&X&X&X&X&X&X&X&X&X&X&X&X&X",
"&X&X&X&X&X&X&X&X&X&X&X&X&X&X&X&X&X&X&X&X&X&X&X&X      C g C C g g C C C C   o   &X&X&X&X&X&X&X&X&X&X&X&X&X&X&X&X&X&X&X&X&X&X&X&X",
"&X&X&X&X&X&X&X&X&X&X&X&X&X&X&X&X&X&X&X&X&X&X&X&X&X&X&X      o     o       &X&X&X&X&X&X&X&X&X&X&X&X&X&X&X&X&X&X&X&X&X&X&X&X&X&X&X"
};
