/* XPM */
static char *result[] = {
/* columns rows colors chars-per-pixel */
"64 64 195 2 ",
"   c #010101",
".  c #090103",
"X  c #090909",
"o  c #060807",
"O  c #130304",
"+  c #15050A",
"@  c #1D060C",
"#  c #12090B",
"$  c #110B15",
"%  c #1C0B11",
"&  c #19131F",
"*  c #171518",
"=  c #0F0C15",
"-  c #21060E",
";  c #22080E",
":  c #240B12",
">  c #2C0C16",
",  c #350A16",
"<  c #3B0917",
"1  c #3A0C19",
"2  c #241017",
"3  c #261419",
"4  c #2A1319",
"5  c #3D121D",
"6  c #282114",
"7  c #3D1A25",
"8  c #381621",
"9  c #242726",
"0  c #282828",
"q  c #323534",
"w  c #393939",
"e  c #3C282D",
"r  c #490F1E",
"t  c #470D1D",
"y  c #42111D",
"u  c #5E241F",
"i  c #4B0E20",
"p  c #520E21",
"a  c #5D0E24",
"s  c #4E1122",
"d  c #431B25",
"f  c #471F29",
"g  c #4B1D2B",
"h  c #451524",
"j  c #521124",
"k  c #5A1125",
"l  c #581B29",
"z  c #611425",
"x  c #64152B",
"c  c #6A142B",
"v  c #6F1F22",
"b  c #79142F",
"n  c #6C1A31",
"m  c #751631",
"M  c #791632",
"N  c #721931",
"B  c #7A1832",
"V  c #46212B",
"C  c #4C212D",
"Z  c #4E2733",
"A  c #5D2938",
"S  c #592533",
"D  c #612221",
"F  c #6F2724",
"G  c #752626",
"H  c #602435",
"J  c #632B3C",
"K  c #6B2B3E",
"L  c #6C2036",
"P  c #63313F",
"I  c #66332D",
"U  c #4A4736",
"Y  c #6B503A",
"T  c #543941",
"R  c #593740",
"E  c #742D42",
"W  c #7C2B42",
"Q  c #683A46",
"!  c #733245",
"~  c #793147",
"^  c #7C3349",
"/  c #793C4E",
"(  c #7C3C50",
")  c #4E376C",
"_  c #50366C",
"`  c #573C75",
"'  c #484445",
"]  c #6D4953",
"[  c #6D555B",
"{  c #616044",
"}  c #594274",
"|  c #736368",
" . c #910D32",
".. c #8D1A3A",
"X. c #851838",
"o. c #951537",
"O. c #93173A",
"+. c #941B3C",
"@. c #981D3F",
"#. c #862D2B",
"$. c #88282D",
"%. c #86213D",
"&. c #A4373A",
"*. c #8E1F40",
"=. c #981B41",
"-. c #862A44",
";. c #9B2444",
":. c #9D2A49",
">. c #952847",
",. c #84334B",
"<. c #8A364F",
"1. c #82394E",
"2. c #97334E",
"3. c #9F2F50",
"4. c #8A3E53",
"5. c #833C51",
"6. c #933D56",
"7. c #963F59",
"8. c #983D56",
"9. c #A22C4D",
"0. c #A02446",
"q. c #A0314F",
"w. c #BA3E41",
"e. c #A93656",
"r. c #AA3957",
"t. c #AC3A5A",
"y. c #A43755",
"u. c #C53F40",
"i. c #8B4057",
"p. c #9B425B",
"a. c #954058",
"s. c #AA405E",
"d. c #A0435F",
"f. c #BA4349",
"g. c #876848",
"h. c #9A4662",
"j. c #AF4867",
"k. c #A64761",
"l. c #B44563",
"z. c #BC4D6D",
"x. c #B74A69",
"c. c #B5516D",
"v. c #BC506E",
"b. c #BE4F70",
"n. c #B85170",
"m. c #CA4C4C",
"M. c #C5544C",
"N. c #C15C52",
"B. c #FE5654",
"V. c #F95953",
"C. c #EF5056",
"Z. c #E9675E",
"A. c #C14F6E",
"S. c #C15173",
"D. c #FF7E6F",
"F. c #A08161",
"G. c #BEA677",
"H. c #CE856A",
"J. c #FD866C",
"K. c #FE8E6E",
"L. c #FF967E",
"P. c #FD9777",
"I. c #FE8875",
"U. c #D2AE7C",
"Y. c #D5B377",
"T. c #C1A775",
"R. c #FDAC7D",
"E. c #715495",
"W. c #684C8B",
"Q. c #AFA880",
"!. c #FF9B82",
"~. c #C5BA8C",
"^. c #FFBB84",
"/. c #E9BF96",
"(. c #CFC59A",
"). c #FFC68A",
"_. c #FFD38D",
"`. c #FED691",
"'. c #FFD992",
"]. c #FEDE9D",
"[. c #F1C79C",
"{. c #E9DFAC",
"}. c #F5CEA6",
"|. c #E9E0AD",
" X c #FEE6A7",
".X c #FFEDB6",
"XX c #F9E4B4",
"oX c #FEF4BC",
"OX c #CBCBC4",
"+X c #FFF7C1",
"@X c #EEEDDF",
"#X c #FFFCE3",
"$X c #FFFDEB",
"%X c #FDFDF5",
"&X c None",
/* pixels */
"&X&X&X&X&X&X&X&X&X&X&X&X&X&X&X&X&X&X&X&X&X&X&X&X&X&X&X&X&X&X&X&X&X&X&X&X&X&X&X&X&X&X&X&X&X&X&X&X&X&X&X&X&X&X&X&X&X&X&X&X&X&X&X&X",
"&X&X&X&X&X&X&X&X&X&X&X&X&X&X&X&X&X&X&X&X&X&X&X&X&X&X&X&X&X&X&X&X&X&X&X&X&X&X&X&X&X&X&X&X&X&X&X&X&X&X&X&X&X&X&X&X&X&X&X&X&X&X&X&X",
"&X&X&X&X&X&X&X&X&X&X&X&X&X&X&X&X&X&X&X&X&X&X&X&X&X&X&X&X&X&X&X&X&X&X&X&X&X&X&X&X&X&X&X&X&X&X&X&X&X&X&X&X&X&X&X&X&X&X&X&X&X&X&X&X",
"&X&X&X&X&X&X&X&X&X&X&X&X&X&X&X&X&X&X&X&X&X&X&X&X&X&X&X&X&X&X&X&X&X&X&X&X&X&X&X&X&X&X&X&X&X&X&X&X&X&X&X&X&X&X&X&X&X&X&X&X&X&X&X&X",
"&X&X&X&X&X&X&X&X&X&X&X&X&X&X&X&X&X&X&X&X&X&X&X&X&X&X&X&X&X&X&X&X&X&X&X&X&X&X&X&X&X&X&X&X&X&X&X&X&X&X&X&X&X&X&X&X&X&X&X&X&X&X&X&X",
"&X&X&X&X&X&X&X&X&X&X&X&X&X&X&X&X&X&X&X&X&X&X&X&X&X&X&X&X&X&X&X&X&X&X&X&X&X&X&X&X&X&X&X&X&X&X&X&X&X&X&X&X&X&X&X&X&X&X&X&X&X&X&X&X",
"&X&X&X&X&X&X&X&X&X&X&X&X&X&X&X&X&X&X&X&X&X&X&X&X&X&X&X&X&X&X&X&X&X&X&X&X&X&X&X&X&X&X&X&X&X&X&X&X&X&X&X&X&X&X&X&X&X&X&X&X&X&X&X&X",
"&X&X&X&X&X&X&X&X&X&X&X&X&X&X&X&X&X&X&X&X&X&X&X&X&X&X&X&X&X&X&X&X&X&X&X&X&X&X&X&X&X&X&X&X&X&X&X&X&X&X&X&X&X&X&X&X&X&X&X&X&X&X&X&X",
"&X&X&X&X&X&X&X&X&X&X&X&X&X&X&X&X&X&X&X&X&X&X&X&X&X&X&X&X&X&X&X&X&X&X&X&X&X&X&X&X&X&X&X&X&X&X&X&X&X&X&X&X&X&X&X&X&X&X&X&X&X&X&X&X",
"&X&X&X&X&X&X&X&X&X&X&X&X&X&X&X&X&X&X&X&X&X&X&X&X&X&X&X&X&X&X&X&X&X&X&X&X&X&X&X&X&X&X&X&X&X&X&X&X&X&X&X&X&X&X&X&X&X&X&X&X&X&X&X&X",
"&X&X&X&X&X&X&X&X&X&X&X&X&X&X&X&X&X&X&X&X&X&X&X&X&X&X&X&X&X&X&X&X&X&X&X&X&X&X&X&X&X&X&X&X&X&X&X&X&X&X&X&X&X&X&X&X&X&X&X&X&X&X&X&X",
"&X&X&X&X&X&X&X&X&X&X&X&X&X&X&X&X&X&X&X&X&X&X&X&X&X&X&X&X&X&X&X&X&X&X&X&X&X&X&X&X&X&X&X&X&X&X&X&X&X&X&X&X&X&X&X&X&X&X&X&X&X&X&X&X",
"&X&X&X&X&X&X&X&X&X&X&X&X&X&X&X&X&X&X&X&X&X&X&X&X&X&X&X&X&X&X&X&X&X&X&X&X&X&X&X&X&X&X&X&X&X&X&X&X&X&X&X&X&X&X&X&X&X&X&X&X&X&X&X&X",
"&X&X&X&X&X&X&X&X&X&X&X&X&X&X&X&X&X&X&X&X&X&X&X&X&X&X&X&X&X&X&X&X&X&X&X&X&X&X&X&X&X&X&X&X&X&X&X&X&X&X&X&X&X&X&X&X&X&X&X&X&X&X&X&X",
"&X&X&X&X&X&X&X&X&X&X&X&X&X&X&X&X&X&X&X&X&X&X&X&X&X&X&X&X&X&X&X&X&X&X&X&X&X&X&X&X&X&X&X&X&X&X&X&X      &X&X&X&X&X&X&X&X&X&X&X&X&X",
"&X&X&X&X&X&X&X&X&X&X&X&X&X&X&X&X&X&X&X&X&X&X&X&X&X&X&X&X&X&X&X&X&X&X&X&X&X&X&X&X&X&X&X&X+ + + @ 4.p.(   &X&X&X&X&X&X&X&X&X&X&X&X",
"&X&X&X&X&X&X&X&X&X&X&X&X&X&X&X&X&X&X&X&X&X&X&X&X&X&X&X&X&X&X&X&X&X&X&X&X&X&X&X&X&X&X  . +.O.+.+.+     &X&X&X&X&X&X&X&X&X&X&X&X&X",
"&X&X&X&X&X&X&X&X&X&X&X&X&X&X&X&X&X&X&X&X&X&X&X&X&X&X&X&X&X&X&X&X&X&X&X&X&X&X&X      p p +.m t y   &X&X&X&X&X&X&X&X&X&X&X&X&X&X&X",
"&X&X&X&X&X&X&X&X&X&X&X&X&X&X&X&X&X&X&X&X&X&X&X&X&X&X&X&X&X&X&X&X&X&X&X&X&X    s s c c p p Q     &X&X&X&X&X&X&X&X&X&X&X&X&X&X&X&X",
"&X&X&X&X&X&X&X&X&X&X&X&X&X&X&X&X&X&X&X&X&X&X&X&X&X&X&X&X&X&X&X&X&X&X&X&X&X  , +.+.+.<   o   &X&X&X&X&X&X&X&X&X&X&X&X&X&X&X&X&X&X",
"&X&X&X&X&XX                     &X&X&X&X&X&X&X&X&X&X&X&X&X&X&X&X&X&X&X  . k +.+.+.p   &X&X&X&X&X&X&X&X&X&X&X&X&X&X&X&X&X&X&X&X&X",
"&X&X&X&X  V h < < < < < < < < g     &X&X&X&X&X&X&X&X&X&X&X&X&X&X&X    1 g -.;.+.a Q   &X&X&X&X&X&X&X&X&X&X&X&X&X&X&X&X      &X&X",
"&X&X&X  ! n.z.r.r.@.+.+.+.+.+...a a   &X&X&X&X&X&X&X&X&X&X&X&X&X  n j ;.e.K d 1     &X&X&X&X&X&X&X&X&X&X&X&X&X&X&X&X  K a ,   &X",
"&X&X    l.S.S.z.z.;.+.+.+.+.+.+.+.+.p . &X&X&X&X&X&X&X&X&X&X&X&X  M +.+.@.1   o &X&X&X&X&X&X&X&X&X&X&X              . z.+.r   &X",
"&X  H b.v.v.A.z.8 . . . . . . +.+.+... .X &X&X&X&X&X&X&X&X&X&X: m l.b.7..   &X&X&X&X&X&X&X  o . o X 8 z.A.x.l.o.o.o.... .   &X&X",
"&X  A n.v.S d d F.m.m.G.G.N.f., , c +.O.  &X&X&X&X&X&X&X&X    4.r.:.>.T   &X&X&X&X&X      Q i.i.4.4.h.z.9.g d , , < h   &X&X&X&X",
"&X  1.b.^ z D u U.L.L.`._.P.K.D u l M +.,   &X&X&X&X&X&X  V A t.,.x k   &X&X&X&X&X  V V V K t.t.,.E ~ E x             &X&X&X&X&X",
". C n.z.# C.B.V.[.oX.X`.`.`.`.B.B.F j ..+.a   &X&X&X&X&X  c.l.B :     &X&X    . . S c.v.c.3.@.+.@ .     . &X&X&X&X&X&X&X&X&X&X&X",
"  C b.b.# C.D.}..XoXoX X'.`._.R.B.G j +.+.k   &X&X      5.;.B e &X0       / 7.7.a.2.:.;.4 : ; @ &X&X&X&X&X&X&X&X&X&X&X&X&X&X&X&X",
"  C A o {.+XoX+XU . . o     O '.`._.g.  +.z   .   c ..=.+.  .   # a.z.z.c.:.+.*.      . &X&X&X&X&X&X&X&X&X&X&X&X&X&X&X&X&X&X&X&X",
". C A   {.oXXX(.U $ $ $ $ $ $ Y.`.).g.o +.a O - @ N +.+.;.2 2 2 2 p.n.7.7.-.m M   &X&X&X&X&X&X&X&X&X&X&X&X&X&X&X&X&X&X&X&X&X&X&X",
"  C A   /..XQ.  ` ` ` ` _ _ ) 6 '.K.#.  +.a a +.+.+.+.+.t.l.l.l.z.S.c.3 3 3 : % ; ; ; ;           &X&X&X&X&X&X; ; ; ; ; 4 4   &X",
"  C A   Z.XXQ.  } E.E.W.` ) ) 6 _.K.#.  +.a a +.+.+.+.+.;.;.;.:.l.S.b.p.p.p.2.B B B M B B B B M M             M B B B B p.a.R . ",
"  C A o [.#X@XOX' & & * = = # Y.'.P.#.  +.a O - @ : l l.;.+.X.1 X.;.:.4 2 1.z.l.l.l.l.l.l.l.l.l.l.N N N N N b +.+.r.l.s.3 4   &X",
"  C H . {.$X%X%X'       .   . `.'.K.$.  +.a   o     V n.;...n @ N +...  . ! n.n.n.n.n.n.c.c.n.c.z.+.O...+.O...+.+.t.n.k.o   &X&X",
"  C b.b.X [.XX$X$X$X#XoXoX]._._.^.Y a o.+.a   &X&X&X      a.8.%.5 ^ p.B >.s @ @                 4.7.7.8.7.7.7.(         &X&X&X&X",
"  C b.b.# C.I.oX+XoXoXoXoX]._.^.B.G k ..+.a   &X&X&X&X&X&Xo 4 l.;.@ . 4 c.9.+.O.        &X&X&X&X9               &X&X&X&X&X&X&X&X",
"&X  1.b.,.G I { H.L.!..X XR.J.Y D z B +.1   &X&X&X&X&X&X&X  > l.;.@   &X  ,.t.r.^ L a k       &X&X&X&X&X&X&X&X&X&X&X&X&X&X&X&X&X",
"&X  J b.b.g d d &.m.f.(.T.M.&.7 , c +.+.  &X&X&X&X&X&X&X&Xw T 4.:.r 1 &X    4.i.4.W %.:.7 5 [   &X&X&X&X&X&X&X&X&X&X&X&X&X&X&X&X",
"&X  A b.A.v.z.c.5       . X O x.+.+...o.X &X&X&X&X&X&X&X&X&X  4 a.;.+.  &X&Xo X o X ~ x.z.y.k   . &X&X&X&X&X&X&X&X&X&X&X&X&X&X&X",
"&X&X  o j.z.b.z.z.v.v.z.v.v.A.+.+.+.j   &X&X&X&X&X&X&X&X&X&X&X  q a.c.M . &X&X&X&X&X      J c.S.;.          * &X&X&X&X&X&X&X&X&X",
"&X&X&X  ! K <.b.S.n.v.z.t.r.r...a a Q   &X&X&X&X&X&X&X&X&X&X&X  q p.z.>.y         &X&X&X  ] 6.v.r.Z Z C y 1 h           &X&X&X&X",
"&X&X&X&X      f V V V d 1 , , V       &X&X&X&X&X&X&X&X&X&X&X&X&X  T C z.t.<.^ ~ z     &X&X  | V V V V f 5 2.r.^ ~ n k x   &X&X&X",
"&X&X&X&X&X&X            .       &X&X&X&X&X&X&X&X&X&X&X&X&X&X&X&X&Xq   z.z.S.n.c.+.a     &X&X            . k.n.n.z.9.+...  &X&X&X",
"&X&X&X&X&X&X&X&X&X&X&X&X&X&X&X&X&X&X&X&X&X&X&X&X&X&X&X&X&X&X&X&X&X&X      o   o n.n.9.@.. &X&X&X&X&X&X&X&X9 o     o o   &X&X&X&X",
"&X&X&X&X&X&X&X&X&X&X&X&X&X&X&X&X&X&X&X&X&X&X&X&X&X&X&X&X&X&X&X&X&X&X&X&X&X&X&X  E J <.3.o &X&X&X&X&X&X&X&X&X&X&X&X&X&X&X&X&X&X&X",
"&X&X&X&X&X&X&X&X&X&X&X&X&X&X&X&X&X&X&X&X&X&X&X&X&X&X&X&X&X&X&X&X&X&X&X&X&X&X&X&X    ] J S   &X&X&X&X&X&X&X&X&X&X&X&X&X&X&X&X&X&X",
"&X&X&X&X&X&X&X&X&X&X&X&X&X&X&X&X&X&X&X&X&X&X&X&X&X&X&X&X&X&X&X&X&X&X&X&X&X&X&X&X&X&X  . z.J   &X&X&X&X&X&X&X&X&X&X&X&X&X&X&X&X&X",
"&X&X&X&X&X&X&X&X&X&X&X&X&X&X&X&X&X&X&X&X&X&X&X&X&X&X&X&X&X&X&X&X&X&X&X&X&X&X&X&X&X&X&X. b.J   &X&X&X&X&X&X&X&X&X&X&X&X&X&X&X&X&X",
"&X&X&X&X&X&X&X&X&X&X&X&X&X&X&X&X&X&X&X&X&X&X&X&X&X&X&X&X&X&X&X&X&X&X&X&X&X&X&X&X&X&X&X&X  r s   &X&X&X&X&X&X&X&X&X&X&X&X&X&X&X&X",
"&X&X&X&X&X&X&X&X&X&X&X&X&X&X&X&X&X&X&X&X&X&X&X&X&X&X&X&X&X&X&X&X&X&X&X&X&X&X&X&X&X&X&X&X  l k   &X&X&X&X&X&X&X&X&X&X&X&X&X&X&X&X",
"&X&X&X&X&X&X&X&X&X&X&X&X&X&X&X&X&X&X&X&X&X&X&X&X&X&X&X&X&X&X&X&X&X&X&X&X&X&X&X&X&X&X&X&X* J A   &X&X&X&X&X&X&X&X&X&X&X&X&X&X&X&X",
"&X&X&X&X&X&X&X&X&X&X&X&X&X&X&X&X&X&X&X&X&X&X&X&X&X&X&X&X&X&X&X&X&X&X&X&X&X&X&X&X&X&X&X&X  | % &X&X&X&X&X&X&X&X&X&X&X&X&X&X&X&X&X",
"&X&X&X&X&X&X&X&X&X&X&X&X&X&X&X&X&X&X&X&X&X&X&X&X&X&X&X&X&X&X&X&X&X&X&X&X&X&X&X&X&X&X&X&X&X  &X&X&X&X&X&X&X&X&X&X&X&X&X&X&X&X&X&X",
"&X&X&X&X&X&X&X&X&X&X&X&X&X&X&X&X&X&X&X&X&X&X&X&X&X&X&X&X&X&X&X&X&X&X&X&X&X&X&X&X&X&X&X&X&X&X&X&X&X&X&X&X&X&X&X&X&X&X&X&X&X&X&X&X",
"&X&X&X&X&X&X&X&X&X&X&X&X&X&X&X&X&X&X&X&X&X&X&X&X&X&X&X&X&X&X&X&X&X&X&X&X&X&X&X&X&X&X&X&X&X&X&X&X&X&X&X&X&X&X&X&X&X&X&X&X&X&X&X&X",
"&X&X&X&X&X&X&X&X&X&X&X&X&X&X&X&X&X&X&X&X&X&X&X&X&X&X&X&X&X&X&X&X&X&X&X&X&X&X&X&X&X&X&X&X&X&X&X&X&X&X&X&X&X&X&X&X&X&X&X&X&X&X&X&X",
"&X&X&X&X&X&X&X&X&X&X&X&X&X&X&X&X&X&X&X&X&X&X&X&X&X&X&X&X&X&X&X&X&X&X&X&X&X&X&X&X&X&X&X&X&X&X&X&X&X&X&X&X&X&X&X&X&X&X&X&X&X&X&X&X",
"&X&X&X&X&X&X&X&X&X&X&X&X&X&X&X&X&X&X&X&X&X&X&X&X&X&X&X&X&X&X&X&X&X&X&X&X&X&X&X&X&X&X&X&X&X&X&X&X&X&X&X&X&X&X&X&X&X&X&X&X&X&X&X&X",
"&X&X&X&X&X&X&X&X&X&X&X&X&X&X&X&X&X&X&X&X&X&X&X&X&X&X&X&X&X&X&X&X&X&X&X&X&X&X&X&X&X&X&X&X&X&X&X&X&X&X&X&X&X&X&X&X&X&X&X&X&X&X&X&X",
"&X&X&X&X&X&X&X&X&X&X&X&X&X&X&X&X&X&X&X&X&X&X&X&X&X&X&X&X&X&X&X&X&X&X&X&X&X&X&X&X&X&X&X&X&X&X&X&X&X&X&X&X&X&X&X&X&X&X&X&X&X&X&X&X",
"&X&X&X&X&X&X&X&X&X&X&X&X&X&X&X&X&X&X&X&X&X&X&X&X&X&X&X&X&X&X&X&X&X&X&X&X&X&X&X&X&X&X&X&X&X&X&X&X&X&X&X&X&X&X&X&X&X&X&X&X&X&X&X&X",
"&X&X&X&X&X&X&X&X&X&X&X&X&X&X&X&X&X&X&X&X&X&X&X&X&X&X&X&X&X&X&X&X&X&X&X&X&X&X&X&X&X&X&X&X&X&X&X&X&X&X&X&X&X&X&X&X&X&X&X&X&X&X&X&X",
"&X&X&X&X&X&X&X&X&X&X&X&X&X&X&X&X&X&X&X&X&X&X&X&X&X&X&X&X&X&X&X&X&X&X&X&X&X&X&X&X&X&X&X&X&X&X&X&X&X&X&X&X&X&X&X&X&X&X&X&X&X&X&X&X"
};
