/* XPM */
static char *a26ce99d2573406c9a7bb08fb1d5e6b6RUlYhaOJG0h6Y47L[] = {
/* columns rows colors chars-per-pixel */
"64 64 195 2 ",
"   c None",
".  c #010101",
"X  c #090103",
"o  c #090909",
"O  c #060807",
"+  c #130304",
"@  c #15050A",
"#  c #1D060C",
"$  c #12090B",
"%  c #110B15",
"&  c #1C0B11",
"*  c #19131F",
"=  c #171518",
"-  c #0F0C15",
";  c #21060E",
":  c #22080E",
">  c #240B12",
",  c #2C0C16",
"<  c #350A16",
"1  c #3B0917",
"2  c #3A0C19",
"3  c #241017",
"4  c #261419",
"5  c #2A1319",
"6  c #3D121D",
"7  c #282114",
"8  c #3D1A25",
"9  c #381621",
"0  c #242726",
"q  c #282828",
"w  c #323534",
"e  c #393939",
"r  c #3C282D",
"t  c #490F1E",
"y  c #470D1D",
"u  c #42111D",
"i  c #5E241F",
"p  c #4B0E20",
"a  c #520E21",
"s  c #5D0E24",
"d  c #4E1122",
"f  c #431B25",
"g  c #471F29",
"h  c #4B1D2B",
"j  c #451524",
"k  c #521124",
"l  c #5A1125",
"z  c #581B29",
"x  c #611425",
"c  c #64152B",
"v  c #6A142B",
"b  c #6F1F22",
"n  c #79142F",
"m  c #6C1A31",
"M  c #751631",
"N  c #791632",
"B  c #721931",
"V  c #7A1832",
"C  c #46212B",
"Z  c #4C212D",
"A  c #4E2733",
"S  c #5D2938",
"D  c #592533",
"F  c #612221",
"G  c #6F2724",
"H  c #752626",
"J  c #602435",
"K  c #632B3C",
"L  c #6B2B3E",
"P  c #6C2036",
"I  c #63313F",
"U  c #66332D",
"Y  c #4A4736",
"T  c #6B503A",
"R  c #543941",
"E  c #593740",
"W  c #742D42",
"Q  c #7C2B42",
"!  c #683A46",
"~  c #733245",
"^  c #793147",
"/  c #7C3349",
"(  c #793C4E",
")  c #7C3C50",
"_  c #4E376C",
"`  c #50366C",
"'  c #573C75",
"]  c #484445",
"[  c #6D4953",
"{  c #6D555B",
"}  c #616044",
"|  c #594274",
" . c #736368",
".. c #910D32",
"X. c #8D1A3A",
"o. c #851838",
"O. c #951537",
"+. c #93173A",
"@. c #941B3C",
"#. c #981D3F",
"$. c #862D2B",
"%. c #88282D",
"&. c #86213D",
"*. c #A4373A",
"=. c #8E1F40",
"-. c #981B41",
";. c #862A44",
":. c #9B2444",
">. c #9D2A49",
",. c #952847",
"<. c #84334B",
"1. c #8A364F",
"2. c #82394E",
"3. c #97334E",
"4. c #9F2F50",
"5. c #8A3E53",
"6. c #833C51",
"7. c #933D56",
"8. c #963F59",
"9. c #983D56",
"0. c #A22C4D",
"q. c #A02446",
"w. c #A0314F",
"e. c #BA3E41",
"r. c #A93656",
"t. c #AA3957",
"y. c #AC3A5A",
"u. c #A43755",
"i. c #C53F40",
"p. c #8B4057",
"a. c #9B425B",
"s. c #954058",
"d. c #AA405E",
"f. c #A0435F",
"g. c #BA4349",
"h. c #876848",
"j. c #9A4662",
"k. c #AF4867",
"l. c #A64761",
"z. c #B44563",
"x. c #BC4D6D",
"c. c #B74A69",
"v. c #B5516D",
"b. c #BC506E",
"n. c #BE4F70",
"m. c #B85170",
"M. c #CA4C4C",
"N. c #C5544C",
"B. c #C15C52",
"V. c #FE5654",
"C. c #F95953",
"Z. c #EF5056",
"A. c #E9675E",
"S. c #C14F6E",
"D. c #C15173",
"F. c #FF7E6F",
"G. c #A08161",
"H. c #BEA677",
"J. c #CE856A",
"K. c #FD866C",
"L. c #FE8E6E",
"P. c #FF967E",
"I. c #FD9777",
"U. c #FE8875",
"Y. c #D2AE7C",
"T. c #D5B377",
"R. c #C1A775",
"E. c #FDAC7D",
"W. c #715495",
"Q. c #684C8B",
"!. c #AFA880",
"~. c #FF9B82",
"^. c #C5BA8C",
"/. c #FFBB84",
"(. c #E9BF96",
"). c #CFC59A",
"_. c #FFC68A",
"`. c #FFD38D",
"'. c #FED691",
"]. c #FFD992",
"[. c #FEDE9D",
"{. c #F1C79C",
"}. c #E9DFAC",
"|. c #F5CEA6",
" X c #E9E0AD",
".X c #FEE6A7",
"XX c #FFEDB6",
"oX c #F9E4B4",
"OX c #FEF4BC",
"+X c #CBCBC4",
"@X c #FFF7C1",
"#X c #EEEDDF",
"$X c #FFFCE3",
"%X c #FFFDEB",
"&X c #FDFDF5",
/* pixels */
"                                                      . . . X . . . . . .                                                       ",
"                                                . . . Z Z Z Z Z Z Z Z Z Z . . .                                                 ",
"                                              . S K 2.n.n.J S D S S S n.m./ S K .                                               ",
"                                            . O x.n.x.S.n.. O . O . X n.n.n.n.n.. .                                             ",
"                                          . ~ k.n.n./ $ $ }.{.A.(.}.}.$ @ <.b.b.c.~ .                                           ",
"                                          . L n.D.h G Z.|.$X$XoXXXOXOXZ.Z.z D x.D.m.C o                                         ",
"                                        . . 1.S.n.f U U.oX&X#X!.H. XOXF.V.F j b.n.c.j .                                         ",
"                                        . g x.S.x.g } OX&X&X+X. O ).@X|.C.i g b.S.t.1 .                                         ",
"                                        . C m.x.9 *.J.OX%X] ] | | ] Y XX{.Y.G.9 S.r.1 .                                         ",
"                                        . C S.b.O e.I.OX%X. * W.| - . @XXXP.M.X :.#.1 .                                         ",
"                                        . C m.b.. N.~.@X$X. * W.' % . OXXX~.M.X #.O.1 .                                         ",
"                                        . f x.b.X ^.XXOXOXX = Q.' % O .X'.'.R.X #.@.1 .                                         ",
"                                        . 2 y.b.. R..X@XOX. % ' ` % . ].'.'.H.X @.@.1 .                                         ",
"                                        . 1 y.b.. N.P.[.[.O % ` _ % . '.`.I.B.X #.@.1 .                                         ",
"                                        . < y.S.o *.K.].].X $ _ _ % + '.].K.g.X @.@.1 .                                         ",
"                                        . C @.O.c.6 T _.`.].T.7 7 T.`.E.C.F < @.@.X.g .                                         ",
"                                          . a #.@.< i V./.`.].`.].].'.C.V.i < @.@.s .                                           ",
"                                          . s O.@.v x H T L.L.L.I._.`.H G z v @.@.s .                                           ",
"                                          . ! k @.@.V k k %.$.$.$.h.h.k t V @.@.a .                                             ",
"                                            . O +.+.@.@.@.. O . . . X @.X.@.@....                                               ",
"                                                o . 2 @.#.O.@.+.@.@.@.@.@.< . o                                                 ",
"                                                    . s s s s s s s s s s .                                                     ",
"                                                      . . X + s s @ . . .                                                       ",
"                                                          . ; #.@.# X                                                           ",
"                                                          . # @.@.# .                                                           ",
"                                                          O ; @.X.M v .                                                         ",
"                                                        . C z @.@.@.X..                                                         ",
"                                                        . m.z.@.@.@.-..                                                         ",
"                                                        . >.:.:.t.:.#.) . .                                                     ",
"                                                  e . O 7.@.@.:.z., . >.v.C .                                                   ",
"                                                . R , 5 7.m V :.z.> X &.z.D .                                                   ",
"                                            . . 5 5.z.z.&.# 1 0.k.3 . r V t.5.>                                                 ",
"                                          . w w 7.>.:.q.6 B o.c.x.3 o   : <.t.M . .                                             ",
"                                        w R s.s.:.t # # / @.:.S.n.f.8.q . v >.z.M m .                                           ",
"                                      . . Z x.x.@.< . O a.X.q.m.v.n.x.. O l ,.n.@.k .                                           ",
"                                      . x.x.,.N .     5 V . 5 a.4 8.v..   . E 8.@.:.2 .                                         ",
"                                      O n.t.j .   . . x.>.. 3 a.4 s.v..     . X @.r.h .                                         ",
"                                      . n.1..     . <.4.d ~ 2.a.4 ;.>.( .     . 2 L ;.s . .                                     ",
"                                      . n.^ .   o p.t.@.# b.x.1.3 M #.9..       . g >.@.< .                                     ",
"                                    . O n./ .   O 5.t.+.# b.z.N & N =.9..       O 2 +.@.@.a .                                   ",
"                                  . L v.@.c .   O 7.^ . . m.z.N ; . . 9.X         . s @.@.a .                                   ",
"                                  . K b.s .     O ;.P . . m.z.V :   . 3.A .       . ! s @.v .                                   ",
"                                . [ ;.0.. .   . ~ &.l . . m.z.V :   . >.v.C .       . . 1 v a .                                 ",
"                              . . L u.:..     . x.>.l . . m.z.V :   O >.b.C .           . a a X                                 ",
"                      . = . . n.x.D O O     . . x.8 .   . v.z.V .     5 v.C .           O a @.#.@                               ",
"                    .  .! k t K K .       . [ K w.6 .   . v.z.N .     > 4.Q ! .         . ! v @.@                               ",
"                      & S l a . .       .  .s.x.k { .   . v.z.V .     ; @.y.p.O           . y @.@                               ",
"                        . . .           . C b.b.X .     . v.z.V .     # X.y.p.O           . y @.#                               ",
"                                        . C t.>..     q 5.x.z.N .       @ / 5.o             . @ 5..                             ",
"                                        . C A .       . 7.+.B .         X ^ 5.X               . a..                             ",
"                                        . C A .       . 8.@.B .         . ^ f.8               . ) .                             ",
"                                        . C Z .       . 7.+.B .         X W c.c..               .                               ",
"                                        . u u .       . 8.@.B .         . v 4.S..                                               ",
"                                      0 l.3.2 .       . 7.+.B .           . h c..                                               ",
"                                      O x.t.j =       . 8.X.n .           . 8 c..                                               ",
"                                      . n./ .         . ) @.@.V :         . 1 O..                                               ",
"                                      . b.^ .           . @.@.V :         . < +..                                               ",
"                                      O >.P .           . d.r.V :         . < O..                                               ",
"                                      . #.s .           . v.k.V :         . j +.+ .                                             ",
"                                      O X.z .           . l.d.V :           . X c.L .                                           ",
"                                        . .               O , a.5             X #.s .                                           ",
"                                                          . , a.5             . t , .                                           ",
"                                                            . E .               . .                                             ",
"                                                              .                                                                 "
};
